<svg width="568" height="181" viewBox="0 0 568 181" fill="none" xmlns="http://www.w3.org/2000/svg">
<rect x="0.5" y="0.5" width="567" height="111.514" fill="#D5D8F6" stroke="black"/>
<line x1="181.585" y1="-1.94316e-08" x2="181.585" y2="112.514" stroke="black"/>
<line x1="171.462" y1="-1.94316e-08" x2="171.462" y2="112.514" stroke="black"/>
<line x1="161.34" y1="-1.94316e-08" x2="161.34" y2="112.514" stroke="black"/>
<line x1="151.217" y1="-1.94316e-08" x2="151.217" y2="112.514" stroke="black"/>
<line x1="141.094" y1="-1.94316e-08" x2="141.094" y2="112.514" stroke="black"/>
<line x1="130.971" y1="-1.94316e-08" x2="130.971" y2="112.514" stroke="black"/>
<line x1="120.849" y1="-1.94316e-08" x2="120.849" y2="112.514" stroke="black"/>
<line x1="110.726" y1="-1.94316e-08" x2="110.726" y2="112.514" stroke="black"/>
<line x1="100.603" y1="-1.94316e-08" x2="100.603" y2="112.514" stroke="black"/>
<line x1="90.4802" y1="-1.94316e-08" x2="90.4802" y2="112.514" stroke="black"/>
<line x1="80.3574" y1="-1.94316e-08" x2="80.3574" y2="112.514" stroke="black"/>
<line x1="70.2346" y1="-1.94316e-08" x2="70.2346" y2="112.514" stroke="black"/>
<line x1="60.1119" y1="-1.94316e-08" x2="60.1119" y2="112.514" stroke="black"/>
<line x1="49.9891" y1="-1.94316e-08" x2="49.9891" y2="112.514" stroke="black"/>
<line x1="39.8663" y1="-1.94316e-08" x2="39.8663" y2="112.514" stroke="black"/>
<line x1="29.7437" y1="-1.94316e-08" x2="29.7437" y2="112.514" stroke="black"/>
<line x1="19.6208" y1="-1.94316e-08" x2="19.6209" y2="112.514" stroke="black"/>
<line x1="9.49805" y1="-2.18557e-08" x2="9.49805" y2="112.514" stroke="black"/>
<line x1="558.377" y1="-1.94316e-08" x2="558.377" y2="112.514" stroke="black"/>
<line x1="548.254" y1="-1.94316e-08" x2="548.254" y2="112.514" stroke="black"/>
<line x1="538.132" y1="-1.94316e-08" x2="538.132" y2="112.514" stroke="black"/>
<line x1="528.009" y1="-1.94316e-08" x2="528.009" y2="112.514" stroke="black"/>
<line x1="517.886" y1="-1.94316e-08" x2="517.886" y2="112.514" stroke="black"/>
<line x1="507.763" y1="-1.94316e-08" x2="507.763" y2="112.514" stroke="black"/>
<line x1="497.641" y1="-1.94316e-08" x2="497.641" y2="112.514" stroke="black"/>
<line x1="487.518" y1="-1.94316e-08" x2="487.518" y2="112.514" stroke="black"/>
<line x1="477.395" y1="-1.94316e-08" x2="477.395" y2="112.514" stroke="black"/>
<line x1="467.272" y1="-1.94316e-08" x2="467.272" y2="112.514" stroke="black"/>
<line x1="457.149" y1="-1.94316e-08" x2="457.149" y2="112.514" stroke="black"/>
<line x1="447.027" y1="-1.94316e-08" x2="447.027" y2="112.514" stroke="black"/>
<line x1="436.904" y1="-1.94316e-08" x2="436.904" y2="112.514" stroke="black"/>
<line x1="426.781" y1="-1.94316e-08" x2="426.781" y2="112.514" stroke="black"/>
<line x1="416.658" y1="-1.94316e-08" x2="416.658" y2="112.514" stroke="black"/>
<line x1="406.536" y1="-1.94316e-08" x2="406.536" y2="112.514" stroke="black"/>
<line x1="396.413" y1="-1.94316e-08" x2="396.413" y2="112.514" stroke="black"/>
<line x1="386.29" y1="-2.18557e-08" x2="386.29" y2="112.514" stroke="black"/>
<rect x="182.21" y="112.514" width="203.58" height="52.5878" fill="#D5D8F6"/>
<line x1="385.79" y1="165.601" x2="181.085" y2="165.601" stroke="black"/>
<line x1="385.79" y1="154.595" x2="181.085" y2="154.595" stroke="black"/>
<line x1="385.79" y1="143.588" x2="181.085" y2="143.588" stroke="black"/>
<line x1="385.79" y1="132.581" x2="181.085" y2="132.581" stroke="black"/>
<line x1="385.79" y1="121.574" x2="181.085" y2="121.574" stroke="black"/>
<line x1="386.29" y1="112.514" x2="386.29" y2="181" stroke="black"/>
<line x1="181.585" y1="112.514" x2="181.585" y2="181" stroke="black"/>
</svg>
