<svg width="80" height="80" viewBox="0 0 80 80" fill="none" xmlns="http://www.w3.org/2000/svg">
<path d="M65.4227 35.8851C64.5503 35.9464 63.6818 36.0539 62.8209 36.2072C50.4116 38.4377 42.1479 50.3344 44.3814 62.7649C44.5141 63.5049 44.683 64.2377 44.8848 64.9463C53.1001 55.7475 62.9921 48.2028 74.0305 42.7168C75.977 41.7505 77.9702 40.8349 79.9996 40.0224C75.7568 37.0127 70.6113 35.5523 65.4227 35.8851Z" fill="white"/>
<path d="M17.3353 44.3882C16.6326 44.5146 15.9363 44.6764 15.2617 44.8544C24.4878 53.1421 32.0417 63.1245 37.5146 74.261C38.4288 76.1453 39.2923 78.057 40.0875 80C42.9945 75.8367 44.4308 70.8207 44.1687 65.7472C44.1229 64.7799 44.0123 63.8168 43.8374 62.8645C41.6079 50.4315 29.7486 42.1544 17.3353 44.3882Z" fill="white"/>
<path d="M62.7493 35.8067C63.452 35.6803 64.1483 35.5184 64.8397 35.3373C55.6627 27.0319 48.1637 17.0388 42.7501 5.90082C41.8085 3.96582 40.9346 2.00022 40.1482 0C38.3701 2.48003 37.1069 5.29225 36.4337 8.27007C35.7604 11.2479 35.6907 14.3308 36.2286 17.3361C38.4582 29.7666 50.3376 38.0405 62.7493 35.8067Z" fill="white"/>
<path d="M5.95779 37.4581H5.9401C4.01045 38.4019 2.03015 39.2981 0 40.1098C4.26277 43.1502 9.43894 44.6318 14.6621 44.3067C15.5345 44.2458 16.403 44.1383 17.2639 43.9846C29.6756 41.7573 37.9184 29.8639 35.6889 17.4334C35.5626 16.7296 35.4034 16.0508 35.2266 15.3744C26.9608 24.5321 17.0271 32.0273 5.95779 37.4581Z" fill="white"/>
</svg>
