<svg width="1901" height="365" viewBox="0 0 1901 365" fill="none" xmlns="http://www.w3.org/2000/svg">
<path d="M114.577 346.19C109.192 346.19 104.599 345.156 100.798 343.089C96.997 340.957 93.7662 338.049 91.1055 334.366L96.997 329.327C99.3409 332.493 101.938 334.916 104.789 336.595C107.64 338.211 110.997 339.018 114.862 339.018C119.613 339.018 123.224 337.855 125.694 335.529C128.228 333.203 129.495 330.102 129.495 326.225C129.495 322.995 128.545 320.507 126.645 318.763C124.744 317.018 121.608 315.629 117.237 314.595L111.821 313.335C105.739 311.914 101.083 309.782 97.8522 306.939C94.6847 304.031 93.101 299.961 93.101 294.727C93.101 291.755 93.6395 289.106 94.7164 286.78C95.7933 284.454 97.2821 282.516 99.1826 280.965C101.146 279.414 103.459 278.251 106.119 277.476C108.843 276.636 111.821 276.216 115.052 276.216C120.056 276.216 124.332 277.153 127.88 279.027C131.491 280.9 134.532 283.646 137.002 287.265L131.016 291.723C129.179 289.138 126.961 287.103 124.364 285.617C121.767 284.131 118.536 283.388 114.672 283.388C110.427 283.388 107.07 284.325 104.599 286.198C102.192 288.008 100.988 290.754 100.988 294.436C100.988 297.667 102.002 300.122 104.029 301.802C106.119 303.417 109.255 304.71 113.436 305.679L118.853 306.939C125.378 308.425 130.097 310.686 133.011 313.723C135.925 316.76 137.382 320.798 137.382 325.838C137.382 328.939 136.844 331.75 135.767 334.269C134.753 336.789 133.265 338.921 131.301 340.666C129.337 342.41 126.93 343.767 124.079 344.736C121.292 345.706 118.124 346.19 114.577 346.19Z" fill="#EDAF4F"/>
<path d="M168.936 346.19C165.642 346.19 162.633 345.576 159.908 344.349C157.184 343.121 154.84 341.377 152.877 339.115C150.976 336.789 149.487 334.043 148.41 330.877C147.334 327.647 146.795 324.028 146.795 320.023C146.795 316.081 147.334 312.495 148.41 309.265C149.487 306.034 150.976 303.288 152.877 301.027C154.84 298.701 157.184 296.924 159.908 295.696C162.633 294.469 165.642 293.855 168.936 293.855C172.23 293.855 175.207 294.469 177.868 295.696C180.592 296.924 182.936 298.701 184.9 301.027C186.864 303.288 188.384 306.034 189.461 309.265C190.538 312.495 191.077 316.081 191.077 320.023C191.077 324.028 190.538 327.647 189.461 330.877C188.384 334.043 186.864 336.789 184.9 339.115C182.936 341.377 180.592 343.121 177.868 344.349C175.207 345.576 172.23 346.19 168.936 346.19ZM168.936 339.309C173.054 339.309 176.411 338.017 179.008 335.432C181.606 332.848 182.904 328.907 182.904 323.609V316.437C182.904 311.139 181.606 307.197 179.008 304.613C176.411 302.028 173.054 300.736 168.936 300.736C164.818 300.736 161.461 302.028 158.863 304.613C156.266 307.197 154.967 311.139 154.967 316.437V323.609C154.967 328.907 156.266 332.848 158.863 335.432C161.461 338.017 164.818 339.309 168.936 339.309Z" fill="#EDAF4F"/>
<path d="M205.683 301.802H197.701V295.018H205.683V284.939C205.683 281.45 206.57 278.639 208.344 276.507C210.117 274.375 212.81 273.308 216.421 273.308H223.833V280.093H213.285V295.018H223.833V301.802H213.285V345.027H205.683V301.802Z" fill="#EDAF4F"/>
<path d="M244.664 345.027C242.003 345.027 239.976 344.284 238.582 342.798C237.252 341.247 236.587 339.245 236.587 336.789V301.802H228.51V295.018H233.071C234.718 295.018 235.826 294.695 236.397 294.049C237.03 293.338 237.347 292.143 237.347 290.463V281.159H244.189V295.018H254.926V301.802H244.189V338.243H254.166V345.027H244.664Z" fill="#EDAF4F"/>
<path d="M262.014 295.018H269.426L274.652 316.63L279.878 338.534H280.069L286.055 316.63L292.232 295.018H298.978L305.345 316.63L311.427 338.534H311.617L316.653 316.63L321.974 295.018H329.101L316.083 345.027H306.675L299.834 320.992L295.558 305.776H295.367L291.186 320.992L284.345 345.027H275.127L262.014 295.018Z" fill="#EDAF4F"/>
<path d="M374.883 345.027C372.032 345.027 369.973 344.252 368.706 342.701C367.503 341.151 366.743 339.212 366.426 336.886H365.951C364.874 339.988 363.1 342.314 360.629 343.864C358.159 345.415 355.213 346.19 351.792 346.19C346.597 346.19 342.543 344.833 339.629 342.12C336.778 339.406 335.353 335.723 335.353 331.071C335.353 326.355 337.032 322.736 340.389 320.216C343.81 317.697 349.1 316.437 356.258 316.437H365.951V311.494C365.951 307.94 365 305.227 363.1 303.353C361.199 301.479 358.285 300.542 354.358 300.542C351.38 300.542 348.878 301.221 346.851 302.577C344.887 303.934 343.24 305.743 341.909 308.005L337.348 303.644C338.679 300.93 340.801 298.636 343.715 296.762C346.629 294.824 350.303 293.855 354.738 293.855C360.693 293.855 365.317 295.341 368.611 298.313C371.906 301.285 373.553 305.42 373.553 310.719V338.243H379.159V345.027H374.883ZM353.027 339.6C354.928 339.6 356.67 339.374 358.254 338.921C359.837 338.469 361.199 337.823 362.34 336.983C363.48 336.143 364.367 335.174 365 334.076C365.634 332.977 365.951 331.782 365.951 330.49V322.252H355.878C351.507 322.252 348.308 322.898 346.281 324.19C344.317 325.482 343.335 327.356 343.335 329.811V331.846C343.335 334.302 344.19 336.208 345.901 337.565C347.674 338.921 350.05 339.6 353.027 339.6Z" fill="#EDAF4F"/>
<path d="M390.009 345.027V295.018H397.611V304.225H398.086C398.973 301.834 400.557 299.702 402.837 297.829C405.118 295.955 408.254 295.018 412.245 295.018H415.19V302.771H410.724C406.607 302.771 403.376 303.579 401.032 305.194C398.751 306.745 397.611 308.716 397.611 311.106V345.027H390.009Z" fill="#EDAF4F"/>
<path d="M442.872 346.19C439.514 346.19 436.473 345.576 433.749 344.349C431.089 343.121 428.776 341.377 426.812 339.115C424.912 336.789 423.423 334.043 422.346 330.877C421.333 327.647 420.826 324.028 420.826 320.023C420.826 316.081 421.333 312.495 422.346 309.265C423.423 306.034 424.912 303.288 426.812 301.027C428.776 298.701 431.089 296.924 433.749 295.696C436.473 294.469 439.514 293.855 442.872 293.855C446.166 293.855 449.112 294.469 451.709 295.696C454.306 296.924 456.523 298.636 458.361 300.833C460.198 302.965 461.591 305.517 462.542 308.489C463.555 311.462 464.062 314.724 464.062 318.278V321.961H428.808V324.287C428.808 326.419 429.125 328.422 429.758 330.296C430.455 332.105 431.405 333.688 432.609 335.045C433.876 336.402 435.396 337.468 437.17 338.243C439.007 339.018 441.066 339.406 443.347 339.406C446.451 339.406 449.143 338.663 451.424 337.177C453.768 335.691 455.573 333.559 456.84 330.78L462.257 334.754C460.673 338.178 458.202 340.957 454.845 343.089C451.487 345.156 447.496 346.19 442.872 346.19ZM442.872 300.348C440.781 300.348 438.881 300.736 437.17 301.511C435.46 302.222 433.971 303.256 432.704 304.613C431.5 305.97 430.55 307.585 429.853 309.459C429.156 311.268 428.808 313.271 428.808 315.467V316.146H455.89V315.08C455.89 310.622 454.686 307.068 452.279 304.419C449.935 301.705 446.799 300.348 442.872 300.348Z" fill="#EDAF4F"/>
<path d="M499.806 277.379H522.042C526.16 277.379 529.897 278.09 533.255 279.511C536.612 280.933 539.463 283.065 541.807 285.908C544.214 288.686 546.051 292.207 547.318 296.472C548.585 300.671 549.219 305.582 549.219 311.203C549.219 316.824 548.585 321.767 547.318 326.031C546.051 330.231 544.214 333.753 541.807 336.595C539.463 339.374 536.612 341.474 533.255 342.895C529.897 344.317 526.16 345.027 522.042 345.027H499.806V277.379ZM522.042 337.855C524.766 337.855 527.268 337.403 529.549 336.499C531.829 335.529 533.793 334.14 535.44 332.331C537.088 330.522 538.355 328.325 539.241 325.741C540.192 323.092 540.667 320.087 540.667 316.727V305.679C540.667 302.319 540.192 299.347 539.241 296.762C538.355 294.113 537.088 291.884 535.44 290.075C533.793 288.266 531.829 286.909 529.549 286.005C527.268 285.035 524.766 284.551 522.042 284.551H507.788V337.855H522.042Z" fill="#EDAF4F"/>
<path d="M581.233 346.19C577.875 346.19 574.834 345.576 572.11 344.349C569.45 343.121 567.137 341.377 565.173 339.115C563.273 336.789 561.784 334.043 560.707 330.877C559.694 327.647 559.187 324.028 559.187 320.023C559.187 316.081 559.694 312.495 560.707 309.265C561.784 306.034 563.273 303.288 565.173 301.027C567.137 298.701 569.45 296.924 572.11 295.696C574.834 294.469 577.875 293.855 581.233 293.855C584.527 293.855 587.473 294.469 590.07 295.696C592.667 296.924 594.884 298.636 596.722 300.833C598.559 302.965 599.952 305.517 600.903 308.489C601.916 311.462 602.423 314.724 602.423 318.278V321.961H567.169V324.287C567.169 326.419 567.486 328.422 568.119 330.296C568.816 332.105 569.766 333.688 570.97 335.045C572.237 336.402 573.757 337.468 575.531 338.243C577.368 339.018 579.427 339.406 581.708 339.406C584.812 339.406 587.504 338.663 589.785 337.177C592.129 335.691 593.934 333.559 595.201 330.78L600.618 334.754C599.034 338.178 596.563 340.957 593.206 343.089C589.848 345.156 585.857 346.19 581.233 346.19ZM581.233 300.348C579.142 300.348 577.242 300.736 575.531 301.511C573.821 302.222 572.332 303.256 571.065 304.613C569.861 305.97 568.911 307.585 568.214 309.459C567.517 311.268 567.169 313.271 567.169 315.467V316.146H594.251V315.08C594.251 310.622 593.047 307.068 590.64 304.419C588.296 301.705 585.16 300.348 581.233 300.348Z" fill="#EDAF4F"/>
<path d="M625.04 345.027L607.841 295.018H615.443L623.995 319.829L629.317 336.886H629.792L635.113 319.829L643.855 295.018H651.172L633.878 345.027H625.04Z" fill="#EDAF4F"/>
<path d="M678.67 346.19C675.312 346.19 672.272 345.576 669.548 344.349C666.887 343.121 664.575 341.377 662.611 339.115C660.71 336.789 659.222 334.043 658.145 330.877C657.131 327.647 656.624 324.028 656.624 320.023C656.624 316.081 657.131 312.495 658.145 309.265C659.222 306.034 660.71 303.288 662.611 301.027C664.575 298.701 666.887 296.924 669.548 295.696C672.272 294.469 675.312 293.855 678.67 293.855C681.964 293.855 684.91 294.469 687.507 295.696C690.105 296.924 692.322 298.636 694.159 300.833C695.996 302.965 697.39 305.517 698.34 308.489C699.354 311.462 699.86 314.724 699.86 318.278V321.961H664.606V324.287C664.606 326.419 664.923 328.422 665.557 330.296C666.253 332.105 667.204 333.688 668.407 335.045C669.674 336.402 671.195 337.468 672.968 338.243C674.806 339.018 676.864 339.406 679.145 339.406C682.249 339.406 684.942 338.663 687.222 337.177C689.566 335.691 691.372 333.559 692.639 330.78L698.055 334.754C696.471 338.178 694.001 340.957 690.643 343.089C687.286 345.156 683.294 346.19 678.67 346.19ZM678.67 300.348C676.579 300.348 674.679 300.736 672.968 301.511C671.258 302.222 669.769 303.256 668.502 304.613C667.299 305.97 666.348 307.585 665.652 309.459C664.955 311.268 664.606 313.271 664.606 315.467V316.146H691.688V315.08C691.688 310.622 690.485 307.068 688.077 304.419C685.733 301.705 682.598 300.348 678.67 300.348Z" fill="#EDAF4F"/>
<path d="M720.464 345.027C717.804 345.027 715.777 344.284 714.383 342.798C713.052 341.247 712.387 339.309 712.387 336.983V273.308H719.989V338.243H727.211V345.027H720.464Z" fill="#EDAF4F"/>
<path d="M756.808 346.19C753.513 346.19 750.504 345.576 747.78 344.349C745.056 343.121 742.712 341.377 740.748 339.115C738.848 336.789 737.359 334.043 736.282 330.877C735.205 327.647 734.667 324.028 734.667 320.023C734.667 316.081 735.205 312.495 736.282 309.265C737.359 306.034 738.848 303.288 740.748 301.027C742.712 298.701 745.056 296.924 747.78 295.696C750.504 294.469 753.513 293.855 756.808 293.855C760.102 293.855 763.079 294.469 765.74 295.696C768.464 296.924 770.808 298.701 772.772 301.027C774.736 303.288 776.256 306.034 777.333 309.265C778.41 312.495 778.948 316.081 778.948 320.023C778.948 324.028 778.41 327.647 777.333 330.877C776.256 334.043 774.736 336.789 772.772 339.115C770.808 341.377 768.464 343.121 765.74 344.349C763.079 345.576 760.102 346.19 756.808 346.19ZM756.808 339.309C760.925 339.309 764.283 338.017 766.88 335.432C769.478 332.848 770.776 328.907 770.776 323.609V316.437C770.776 311.139 769.478 307.197 766.88 304.613C764.283 302.028 760.925 300.736 756.808 300.736C752.69 300.736 749.332 302.028 746.735 304.613C744.138 307.197 742.839 311.139 742.839 316.437V323.609C742.839 328.907 744.138 332.848 746.735 335.432C749.332 338.017 752.69 339.309 756.808 339.309Z" fill="#EDAF4F"/>
<path d="M791.451 295.018H799.053V303.159H799.433C800.7 299.993 802.537 297.667 804.944 296.181C807.415 294.63 810.361 293.855 813.782 293.855C816.822 293.855 819.578 294.469 822.049 295.696C824.519 296.924 826.61 298.668 828.32 300.93C830.094 303.191 831.424 305.937 832.311 309.168C833.262 312.398 833.737 316.017 833.737 320.023C833.737 324.028 833.262 327.647 832.311 330.877C831.424 334.108 830.094 336.854 828.32 339.115C826.61 341.377 824.519 343.121 822.049 344.349C819.578 345.576 816.822 346.19 813.782 346.19C807.13 346.19 802.347 343.089 799.433 336.886H799.053V364.411H791.451V295.018ZM811.691 339.212C815.999 339.212 819.388 337.855 821.859 335.142C824.329 332.363 825.565 328.745 825.565 324.287V315.758C825.565 311.3 824.329 307.714 821.859 305C819.388 302.222 815.999 300.833 811.691 300.833C809.981 300.833 808.333 301.091 806.75 301.608C805.229 302.061 803.899 302.707 802.759 303.547C801.618 304.387 800.7 305.42 800.003 306.648C799.369 307.811 799.053 309.071 799.053 310.428V329.036C799.053 330.651 799.369 332.105 800.003 333.397C800.7 334.625 801.618 335.691 802.759 336.595C803.899 337.435 805.229 338.081 806.75 338.534C808.333 338.986 809.981 339.212 811.691 339.212Z" fill="#EDAF4F"/>
<path d="M846.572 345.027V295.018H854.174V303.159H854.554C855.125 301.867 855.758 300.671 856.455 299.573C857.215 298.41 858.102 297.409 859.116 296.569C860.193 295.729 861.428 295.083 862.822 294.63C864.215 294.113 865.862 293.855 867.763 293.855C870.994 293.855 873.971 294.663 876.695 296.278C879.419 297.829 881.446 300.413 882.777 304.031H882.967C883.854 301.318 885.501 298.959 887.908 296.956C890.379 294.889 893.705 293.855 897.886 293.855C902.89 293.855 906.786 295.535 909.574 298.895C912.425 302.19 913.85 306.874 913.85 312.948V345.027H906.248V314.304C906.248 309.846 905.393 306.486 903.682 304.225C901.972 301.964 899.248 300.833 895.51 300.833C893.99 300.833 892.533 301.027 891.139 301.414C889.809 301.802 888.605 302.384 887.528 303.159C886.451 303.934 885.596 304.936 884.962 306.163C884.329 307.326 884.012 308.716 884.012 310.331V345.027H876.41V314.304C876.41 309.846 875.555 306.486 873.844 304.225C872.134 301.964 869.473 300.833 865.862 300.833C864.342 300.833 862.885 301.027 861.491 301.414C860.098 301.802 858.862 302.384 857.785 303.159C856.708 303.934 855.822 304.936 855.125 306.163C854.491 307.326 854.174 308.716 854.174 310.331V345.027H846.572Z" fill="#EDAF4F"/>
<path d="M947.968 346.19C944.611 346.19 941.57 345.576 938.846 344.349C936.185 343.121 933.873 341.377 931.909 339.115C930.008 336.789 928.52 334.043 927.443 330.877C926.429 327.647 925.922 324.028 925.922 320.023C925.922 316.081 926.429 312.495 927.443 309.265C928.52 306.034 930.008 303.288 931.909 301.027C933.873 298.701 936.185 296.924 938.846 295.696C941.57 294.469 944.611 293.855 947.968 293.855C951.262 293.855 954.208 294.469 956.805 295.696C959.403 296.924 961.62 298.636 963.457 300.833C965.294 302.965 966.688 305.517 967.638 308.489C968.652 311.462 969.159 314.724 969.159 318.278V321.961H933.904V324.287C933.904 326.419 934.221 328.422 934.855 330.296C935.552 332.105 936.502 333.688 937.705 335.045C938.972 336.402 940.493 337.468 942.267 338.243C944.104 339.018 946.163 339.406 948.443 339.406C951.547 339.406 954.24 338.663 956.52 337.177C958.864 335.691 960.67 333.559 961.937 330.78L967.353 334.754C965.769 338.178 963.299 340.957 959.941 343.089C956.584 345.156 952.593 346.19 947.968 346.19ZM947.968 300.348C945.878 300.348 943.977 300.736 942.267 301.511C940.556 302.222 939.068 303.256 937.801 304.613C936.597 305.97 935.647 307.585 934.95 309.459C934.253 311.268 933.904 313.271 933.904 315.467V316.146H960.986V315.08C960.986 310.622 959.783 307.068 957.376 304.419C955.032 301.705 951.896 300.348 947.968 300.348Z" fill="#EDAF4F"/>
<path d="M981.686 345.027V295.018H989.287V303.159H989.668C990.871 300.316 992.55 298.055 994.704 296.375C996.921 294.695 999.867 293.855 1003.54 293.855C1008.61 293.855 1012.6 295.535 1015.51 298.895C1018.49 302.19 1019.98 306.874 1019.98 312.948V345.027H1012.38V314.304C1012.38 305.323 1008.67 300.833 1001.26 300.833C999.74 300.833 998.252 301.027 996.794 301.414C995.401 301.802 994.134 302.384 992.993 303.159C991.853 303.934 990.935 304.936 990.238 306.163C989.604 307.326 989.287 308.716 989.287 310.331V345.027H981.686Z" fill="#EDAF4F"/>
<path d="M1046.53 345.027C1043.87 345.027 1041.84 344.284 1040.44 342.798C1039.11 341.247 1038.45 339.245 1038.45 336.789V301.802H1030.37V295.018H1034.93C1036.58 295.018 1037.69 294.695 1038.26 294.049C1038.89 293.338 1039.21 292.143 1039.21 290.463V281.159H1046.05V295.018H1056.79V301.802H1046.05V338.243H1056.03V345.027H1046.53Z" fill="#EDAF4F"/>
<path d="M117.409 116.238H124.993C128.042 116.238 130.57 115.827 132.576 115.005C134.583 114.1 136.308 112.703 137.753 110.812L185.783 48.5267C187.79 45.8955 189.876 44.0866 192.043 43.0999C194.29 42.0309 197.099 41.4965 200.469 41.4965L221.761 43.0999L169.773 115.622C166.322 120.144 162.751 123.351 159.059 125.242C161.708 126.229 164.075 127.626 166.162 129.435C168.329 131.162 170.375 133.464 172.301 136.342L232.73 219.841H204.201C200.349 219.841 197.46 219.306 195.534 218.237C193.688 217.086 192.123 215.442 190.839 213.304L141.605 147.442C140.08 145.222 138.314 143.66 136.308 142.756C134.302 141.851 131.413 141.399 127.641 141.399H117.409V219.841H85.0273V41.4965H117.409V116.238Z" fill="white"/>
<path d="M316.017 142.016C316.017 138.069 315.455 134.369 314.331 130.915C313.288 127.38 311.683 124.296 309.516 121.665C307.349 119.034 304.581 116.978 301.21 115.498C297.92 113.936 294.068 113.155 289.654 113.155C281.067 113.155 274.286 115.663 269.31 120.678C264.415 125.694 261.285 132.807 259.921 142.016H316.017ZM259.319 160.393C259.8 166.888 260.924 172.521 262.689 177.29C264.455 181.977 266.782 185.882 269.671 189.007C272.56 192.049 275.971 194.351 279.903 195.914C283.916 197.394 288.33 198.134 293.145 198.134C297.96 198.134 302.093 197.558 305.544 196.407C309.075 195.256 312.124 193.981 314.692 192.584C317.341 191.186 319.628 189.911 321.554 188.76C323.56 187.609 325.486 187.033 327.332 187.033C329.82 187.033 331.666 187.979 332.87 189.87L341.416 200.97C338.126 204.917 334.434 208.247 330.342 210.961C326.249 213.592 321.955 215.73 317.461 217.374C313.047 218.936 308.513 220.046 303.859 220.704C299.284 221.362 294.83 221.691 290.497 221.691C281.91 221.691 273.925 220.252 266.542 217.374C259.158 214.414 252.738 210.097 247.281 204.424C241.824 198.668 237.531 191.597 234.401 183.21C231.271 174.741 229.706 164.956 229.706 153.856C229.706 145.222 231.07 137.123 233.799 129.559C236.527 121.912 240.42 115.293 245.475 109.701C250.612 104.028 256.831 99.5468 264.134 96.2578C271.517 92.9689 279.823 91.3244 289.052 91.3244C296.837 91.3244 304.019 92.5989 310.6 95.1478C317.18 97.6968 322.838 101.438 327.573 106.371C332.308 111.223 335.999 117.225 338.648 124.379C341.376 131.45 342.74 139.549 342.74 148.676C342.74 153.28 342.259 156.405 341.296 158.049C340.333 159.612 338.487 160.393 335.759 160.393H259.319Z" fill="white"/>
<path d="M473.346 93.2978L424.353 219.841H397.388L348.394 93.2978H372.951C375.198 93.2978 377.044 93.8322 378.489 94.9011C380.014 95.9701 381.017 97.3268 381.498 98.9712L405.333 166.56C406.617 170.506 407.741 174.371 408.704 178.153C409.667 181.935 410.509 185.718 411.231 189.5C412.034 185.718 412.917 181.935 413.88 178.153C414.843 174.371 416.006 170.506 417.371 166.56L441.687 98.9712C442.249 97.3268 443.252 95.9701 444.696 94.9011C446.141 93.8322 447.866 93.2978 449.873 93.2978H473.346Z" fill="white"/>
<path d="M601.385 93.2978L534.094 254.622C533.211 256.76 532.047 258.363 530.603 259.432C529.238 260.583 527.112 261.159 524.223 261.159H502.073L525.186 210.344L475.229 93.2978H501.351C503.678 93.2978 505.484 93.8733 506.768 95.0245C508.132 96.1756 509.135 97.4912 509.777 98.9712L536.02 164.586C536.902 166.806 537.625 169.026 538.186 171.246C538.828 173.466 539.43 175.728 539.992 178.03C540.714 175.728 541.437 173.466 542.159 171.246C542.881 168.944 543.684 166.683 544.566 164.463L569.364 98.9712C570.006 97.3268 571.049 95.9701 572.494 94.9011C574.019 93.8322 575.704 93.2978 577.55 93.2978H601.385Z" fill="white"/>
<path d="M700.869 120.062C699.986 121.213 699.103 122.117 698.221 122.775C697.418 123.433 696.214 123.762 694.609 123.762C693.085 123.762 691.6 123.31 690.155 122.405C688.711 121.418 686.986 120.35 684.979 119.198C682.973 117.965 680.565 116.896 677.757 115.992C675.028 115.005 671.617 114.512 667.524 114.512C662.308 114.512 657.734 115.498 653.802 117.472C649.869 119.363 646.579 122.117 643.93 125.735C641.362 129.353 639.436 133.752 638.152 138.932C636.868 144.03 636.226 149.827 636.226 156.323C636.226 163.065 636.908 169.067 638.273 174.33C639.717 179.592 641.764 184.032 644.412 187.65C647.06 191.186 650.27 193.899 654.042 195.79C657.814 197.599 662.067 198.504 666.802 198.504C671.537 198.504 675.349 197.928 678.238 196.777C681.207 195.544 683.695 194.228 685.701 192.83C687.708 191.35 689.433 190.035 690.878 188.883C692.402 187.65 694.088 187.033 695.934 187.033C698.341 187.033 700.147 187.979 701.351 189.87L709.897 200.97C706.607 204.917 703.036 208.247 699.184 210.961C695.332 213.592 691.319 215.73 687.146 217.374C683.053 218.936 678.8 220.046 674.386 220.704C670.052 221.362 665.719 221.691 661.385 221.691C653.761 221.691 646.579 220.252 639.838 217.374C633.097 214.414 627.198 210.138 622.142 204.547C617.086 198.956 613.074 192.131 610.104 184.073C607.215 175.933 605.771 166.683 605.771 156.323C605.771 147.031 607.055 138.439 609.623 130.545C612.271 122.57 616.123 115.704 621.179 109.948C626.235 104.11 632.495 99.5468 639.958 96.2578C647.421 92.9689 656.008 91.3244 665.719 91.3244C674.948 91.3244 683.013 92.8455 689.915 95.8878C696.897 98.9301 703.156 103.288 708.694 108.961L700.869 120.062Z" fill="white"/>
<path d="M758.27 106.865C763.085 102.26 768.382 98.519 774.16 95.6411C779.938 92.7633 786.719 91.3244 794.504 91.3244C801.245 91.3244 807.224 92.5166 812.44 94.9011C817.656 97.2034 821.99 100.492 825.441 104.768C828.972 108.961 831.62 114.018 833.386 119.938C835.232 125.776 836.154 132.231 836.154 139.302V219.841H806.421V139.302C806.421 131.573 804.696 125.612 801.245 121.418C797.794 117.143 792.538 115.005 785.476 115.005C780.339 115.005 775.524 116.197 771.03 118.582C766.536 120.966 762.283 124.214 758.27 128.325V219.841H728.537V36.563H758.27V106.865Z" fill="white"/>
<path d="M1020.36 73.934C1019.4 75.6607 1018.35 76.9351 1017.23 77.7574C1016.19 78.4974 1014.86 78.8674 1013.26 78.8674C1011.57 78.8674 1009.73 78.2507 1007.72 77.0174C1005.79 75.7018 1003.47 74.2629 1000.74 72.7006C998.01 71.1383 994.8 69.7405 991.109 68.5071C987.497 67.1916 983.204 66.5338 978.228 66.5338C973.734 66.5338 969.802 67.1093 966.431 68.2605C963.061 69.3294 960.212 70.8505 957.884 72.8239C955.637 74.7973 953.952 77.1818 952.828 79.9774C951.705 82.6908 951.143 85.692 951.143 88.981C951.143 93.1744 952.267 96.669 954.514 99.4646C956.841 102.26 959.891 104.645 963.662 106.618C967.434 108.591 971.728 110.359 976.543 111.922C981.358 113.484 986.293 115.169 991.349 116.978C996.405 118.705 1001.34 120.761 1006.16 123.145C1010.97 125.447 1015.26 128.408 1019.04 132.025C1022.81 135.561 1025.82 139.919 1028.06 145.099C1030.39 150.279 1031.56 156.569 1031.56 163.969C1031.56 172.027 1030.19 179.592 1027.46 186.663C1024.81 193.652 1020.88 199.778 1015.67 205.041C1010.53 210.221 1004.23 214.332 996.766 217.374C989.303 220.334 980.756 221.814 971.126 221.814C965.589 221.814 960.131 221.239 954.755 220.088C949.378 219.019 944.201 217.456 939.226 215.401C934.33 213.345 929.716 210.878 925.382 208.001C921.049 205.123 917.197 201.916 913.826 198.38L923.336 182.47C924.138 181.319 925.182 180.373 926.466 179.633C927.75 178.811 929.114 178.4 930.559 178.4C932.565 178.4 934.732 179.263 937.059 180.99C939.386 182.634 942.155 184.484 945.365 186.54C948.575 188.596 952.307 190.487 956.56 192.214C960.894 193.858 966.07 194.68 972.089 194.68C981.318 194.68 988.46 192.46 993.516 188.02C998.572 183.498 1001.1 177.043 1001.1 168.656C1001.1 163.97 999.936 160.146 997.609 157.186C995.362 154.226 992.352 151.759 988.581 149.786C984.809 147.73 980.515 146.003 975.7 144.606C970.885 143.208 965.99 141.687 961.014 140.042C956.039 138.398 951.143 136.424 946.328 134.122C941.513 131.82 937.22 128.819 933.448 125.119C929.676 121.418 926.626 116.814 924.299 111.305C922.052 105.714 920.928 98.8479 920.928 90.7077C920.928 84.212 922.172 77.8807 924.66 71.7139C927.228 65.5471 930.92 60.0792 935.735 55.3102C940.55 50.5412 946.489 46.7177 953.551 43.8399C960.613 40.962 968.718 39.5231 977.867 39.5231C988.139 39.5231 997.609 41.1676 1006.28 44.4566C1014.94 47.7455 1022.33 52.3501 1028.43 58.2702L1020.36 73.934Z" fill="white"/>
<path d="M1109.29 91.3244C1118.44 91.3244 1126.74 92.8455 1134.21 95.8878C1141.75 98.9301 1148.17 103.247 1153.47 108.838C1158.84 114.429 1162.98 121.254 1165.87 129.312C1168.76 137.37 1170.2 146.374 1170.2 156.323C1170.2 166.354 1168.76 175.399 1165.87 183.457C1162.98 191.515 1158.84 198.38 1153.47 204.054C1148.17 209.727 1141.75 214.085 1134.21 217.127C1126.74 220.17 1118.44 221.691 1109.29 221.691C1100.06 221.691 1091.67 220.17 1084.13 217.127C1076.59 214.085 1070.13 209.727 1064.75 204.054C1059.45 198.38 1055.32 191.515 1052.35 183.457C1049.46 175.399 1048.02 166.354 1048.02 156.323C1048.02 146.374 1049.46 137.37 1052.35 129.312C1055.32 121.254 1059.45 114.429 1064.75 108.838C1070.13 103.247 1076.59 98.9301 1084.13 95.8878C1091.67 92.8455 1100.06 91.3244 1109.29 91.3244ZM1109.29 198.257C1119.56 198.257 1127.15 194.721 1132.04 187.65C1137.02 180.579 1139.5 170.219 1139.5 156.569C1139.5 142.92 1137.02 132.519 1132.04 125.365C1127.15 118.212 1119.56 114.635 1109.29 114.635C1098.86 114.635 1091.11 118.253 1086.06 125.489C1081.08 132.642 1078.59 143.002 1078.59 156.569C1078.59 170.136 1081.08 180.497 1086.06 187.65C1091.11 194.721 1098.86 198.257 1109.29 198.257Z" fill="white"/>
<path d="M1222.98 36.563V219.841H1193.24V36.563H1222.98Z" fill="white"/>
<path d="M1359.02 93.2978V219.841H1340.84C1336.91 219.841 1334.42 217.991 1333.38 214.291L1331.33 204.177C1326.27 209.44 1320.7 213.715 1314.6 217.004C1308.5 220.211 1301.31 221.814 1293.05 221.814C1286.31 221.814 1280.33 220.663 1275.11 218.361C1269.98 215.976 1265.64 212.646 1262.11 208.371C1258.58 204.095 1255.89 199.038 1254.05 193.2C1252.28 187.28 1251.4 180.784 1251.4 173.713V93.2978H1281.13V173.713C1281.13 181.442 1282.86 187.445 1286.31 191.72C1289.84 195.914 1295.1 198.01 1302.08 198.01C1307.21 198.01 1312.03 196.859 1316.52 194.557C1321.02 192.172 1325.27 188.925 1329.28 184.813V93.2978H1359.02Z" fill="white"/>
<path d="M1513.09 219.841H1483.35V116.115H1426.05V184.69C1426.05 188.637 1426.98 191.72 1428.82 193.94C1430.75 196.16 1433.36 197.27 1436.65 197.27C1438.49 197.27 1440.02 197.065 1441.22 196.654C1442.51 196.16 1443.59 195.667 1444.47 195.174C1445.44 194.68 1446.28 194.228 1447 193.817C1447.72 193.324 1448.45 193.077 1449.17 193.077C1450.05 193.077 1450.77 193.324 1451.33 193.817C1451.9 194.228 1452.5 194.886 1453.14 195.79L1462.05 210.591C1457.71 214.291 1452.74 217.086 1447.12 218.978C1441.5 220.869 1435.68 221.814 1429.67 221.814C1418.91 221.814 1410.65 218.731 1404.87 212.564C1399.17 206.315 1396.32 197.723 1396.32 186.787V116.115H1383.68C1382.08 116.115 1380.71 115.581 1379.59 114.512C1378.47 113.443 1377.9 111.839 1377.9 109.701V97.6145L1397.77 94.1611L1404.03 59.7503C1404.43 58.1058 1405.19 56.8313 1406.31 55.9268C1407.44 55.0224 1408.88 54.5701 1410.65 54.5701H1426.05V94.4078H1513.09V219.841ZM1518.26 55.9268C1518.26 58.558 1517.74 61.0659 1516.7 63.4504C1515.66 65.7527 1514.25 67.7671 1512.49 69.4938C1510.8 71.2206 1508.75 72.6184 1506.35 73.6873C1504.02 74.674 1501.53 75.1673 1498.88 75.1673C1496.32 75.1673 1493.91 74.674 1491.66 73.6873C1489.41 72.6184 1487.45 71.2206 1485.76 69.4938C1484.08 67.7671 1482.71 65.7527 1481.67 63.4504C1480.71 61.0659 1480.22 58.558 1480.22 55.9268C1480.22 53.2134 1480.71 50.7056 1481.67 48.4033C1482.71 46.0188 1484.08 43.9632 1485.76 42.2365C1487.45 40.4276 1489.41 39.0298 1491.66 38.0431C1493.91 36.9742 1496.32 36.4397 1498.88 36.4397C1501.53 36.4397 1504.02 36.9742 1506.35 38.0431C1508.75 39.0298 1510.8 40.4276 1512.49 42.2365C1514.25 43.9632 1515.66 46.0188 1516.7 48.4033C1517.74 50.7056 1518.26 53.2134 1518.26 55.9268Z" fill="white"/>
<path d="M1598.09 91.3244C1607.24 91.3244 1615.54 92.8455 1623.01 95.8878C1630.55 98.9301 1636.97 103.247 1642.27 108.838C1647.64 114.429 1651.78 121.254 1654.66 129.312C1657.55 137.37 1659 146.374 1659 156.323C1659 166.354 1657.55 175.399 1654.66 183.457C1651.78 191.515 1647.64 198.38 1642.27 204.054C1636.97 209.727 1630.55 214.085 1623.01 217.127C1615.54 220.17 1607.24 221.691 1598.09 221.691C1588.86 221.691 1580.47 220.17 1572.93 217.127C1565.38 214.085 1558.92 209.727 1553.55 204.054C1548.25 198.38 1544.12 191.515 1541.15 183.457C1538.26 175.399 1536.82 166.354 1536.82 156.323C1536.82 146.374 1538.26 137.37 1541.15 129.312C1544.12 121.254 1548.25 114.429 1553.55 108.838C1558.92 103.247 1565.38 98.9301 1572.93 95.8878C1580.47 92.8455 1588.86 91.3244 1598.09 91.3244ZM1598.09 198.257C1608.36 198.257 1615.94 194.721 1620.84 187.65C1625.81 180.579 1628.3 170.219 1628.3 156.569C1628.3 142.92 1625.81 132.519 1620.84 125.365C1615.94 118.212 1608.36 114.635 1598.09 114.635C1587.65 114.635 1579.91 118.253 1574.85 125.489C1569.88 132.642 1567.39 143.002 1567.39 156.569C1567.39 170.136 1569.88 180.497 1574.85 187.65C1579.91 194.721 1587.65 198.257 1598.09 198.257Z" fill="white"/>
<path d="M1709.49 108.838C1711.98 106.289 1714.59 103.946 1717.31 101.808C1720.12 99.5879 1723.05 97.7379 1726.1 96.2578C1729.23 94.6956 1732.56 93.5033 1736.09 92.6811C1739.62 91.7766 1743.48 91.3244 1747.65 91.3244C1754.39 91.3244 1760.37 92.5166 1765.59 94.9011C1770.8 97.2034 1775.13 100.492 1778.59 104.768C1782.12 108.961 1784.77 114.018 1786.53 119.938C1788.38 125.776 1789.3 132.231 1789.3 139.302V219.841H1759.57V139.302C1759.57 131.573 1757.84 125.612 1754.39 121.418C1750.94 117.143 1745.68 115.005 1738.62 115.005C1733.48 115.005 1728.67 116.197 1724.18 118.582C1719.68 120.966 1715.43 124.214 1711.42 128.325V219.841H1681.68V93.2978H1699.86C1703.71 93.2978 1706.24 95.1478 1707.44 98.8479L1709.49 108.838Z" fill="white"/>
<path d="M1892.93 117.965C1892.13 119.281 1891.29 120.226 1890.41 120.802C1889.52 121.295 1888.4 121.542 1887.03 121.542C1885.59 121.542 1884.03 121.131 1882.34 120.308C1880.73 119.486 1878.85 118.582 1876.68 117.595C1874.52 116.526 1872.03 115.581 1869.22 114.758C1866.49 113.936 1863.24 113.525 1859.47 113.525C1853.61 113.525 1849 114.799 1845.62 117.348C1842.33 119.897 1840.69 123.227 1840.69 127.339C1840.69 130.052 1841.53 132.354 1843.22 134.245C1844.98 136.054 1847.27 137.658 1850.08 139.056C1852.97 140.453 1856.22 141.728 1859.83 142.879C1863.44 143.948 1867.09 145.14 1870.78 146.456C1874.56 147.771 1878.25 149.292 1881.86 151.019C1885.47 152.664 1888.68 154.801 1891.49 157.433C1894.38 159.982 1896.66 163.065 1898.35 166.683C1900.12 170.301 1901 174.659 1901 179.757C1901 185.841 1899.92 191.474 1897.75 196.654C1895.66 201.752 1892.53 206.192 1888.36 209.974C1884.19 213.674 1879.01 216.593 1872.83 218.731C1866.73 220.786 1859.67 221.814 1851.64 221.814C1847.39 221.814 1843.22 221.403 1839.12 220.581C1835.11 219.841 1831.22 218.772 1827.45 217.374C1823.76 215.976 1820.31 214.332 1817.1 212.441C1813.97 210.55 1811.2 208.494 1808.79 206.274L1815.65 194.68C1816.53 193.282 1817.58 192.214 1818.78 191.474C1819.98 190.733 1821.51 190.363 1823.35 190.363C1825.2 190.363 1826.93 190.898 1828.53 191.967C1830.22 193.036 1832.14 194.187 1834.31 195.42C1836.48 196.654 1839 197.805 1841.89 198.874C1844.86 199.943 1848.59 200.477 1853.09 200.477C1856.62 200.477 1859.63 200.066 1862.12 199.244C1864.68 198.339 1866.77 197.188 1868.38 195.79C1870.06 194.392 1871.27 192.789 1871.99 190.98C1872.79 189.089 1873.19 187.157 1873.19 185.183C1873.19 182.223 1872.31 179.798 1870.54 177.907C1868.86 176.015 1866.57 174.371 1863.68 172.973C1860.87 171.575 1857.62 170.342 1853.93 169.273C1850.32 168.122 1846.59 166.888 1842.74 165.573C1838.96 164.257 1835.23 162.736 1831.54 161.009C1827.93 159.201 1824.68 156.939 1821.79 154.226C1818.98 151.513 1816.69 148.182 1814.93 144.236C1813.24 140.289 1812.4 135.52 1812.4 129.929C1812.4 124.749 1813.4 119.815 1815.41 115.128C1817.42 110.442 1820.35 106.371 1824.2 102.918C1828.13 99.3824 1832.99 96.5867 1838.76 94.5311C1844.62 92.3933 1851.36 91.3244 1858.99 91.3244C1867.49 91.3244 1875.24 92.7633 1882.22 95.6411C1889.2 98.519 1895.02 102.301 1899.67 106.988L1892.93 117.965Z" fill="white"/>
<path fill-rule="evenodd" clip-rule="evenodd" d="M216.782 1.88811C213.351 -1.02149 208.288 -0.511711 205.472 3.02673L46.1291 203.26V12C46.1291 7.42816 42.5242 3.72197 38.0773 3.72197H8.05173C3.60488 3.72197 0 7.42817 0 12V337.91C0 342.482 3.60488 346.188 8.05173 346.188H38.0773C42.5242 346.188 46.1291 342.482 46.1291 337.91V278.282L241.114 33.2606C243.93 29.7222 243.432 24.495 240.002 21.5854L216.782 1.88811Z" fill="#EDAF4F"/>
</svg>
