<svg width="473" height="81" viewBox="0 0 473 81" fill="none" xmlns="http://www.w3.org/2000/svg">
<g clip-path="url(#clip0_68_124)">
<path d="M23.1585 47.0452C16.499 44.4435 10.7495 42.2058 10.7495 37.0237C10.7495 31.0387 16.1992 28.9081 21.3063 28.9081C30.1286 28.9081 34.8181 33.7796 34.8609 33.8331L35.3106 34.3149L39.2614 27.6875L39.0151 27.4198C38.7903 27.1629 33.3192 21.1778 21.5204 21.1778C12.1306 21.1778 2.02353 26.135 2.02353 37.0237C2.02353 47.3236 11.3276 51.0066 19.529 54.2508C26.1992 56.8953 31.9594 59.1759 31.9594 64.3044C31.9594 70.0646 26.6061 72.6449 21.2956 72.6449C11.2634 72.6449 5.14988 66.1352 5.08564 66.071L4.67879 65.632L-0.0107422 71.8419L0.256925 72.1416C0.331872 72.2273 2.11989 74.2402 5.59956 76.2744C8.80086 78.1481 14.1007 80.3751 21.1778 80.3751C32.4733 80.3751 40.6747 73.6085 40.6747 64.3044C40.6747 53.876 31.3599 50.2358 23.1478 47.0345" fill="white"/>
<path d="M100.728 50.5034C100.728 62.9232 91.4351 72.6556 79.5721 72.6556C67.7091 72.6556 58.4156 62.9232 58.4156 50.5034C58.4156 38.0837 67.7091 29.0151 79.5721 29.0151C91.4351 29.0151 100.728 38.4584 100.728 50.5034ZM79.5721 21.1778C62.8161 21.1778 49.6897 34.058 49.6897 50.5034C49.6897 66.9489 62.8161 80.3858 79.5721 80.3858C96.328 80.3858 109.454 67.2594 109.454 50.5034C109.454 33.7475 96.328 21.1778 79.5721 21.1778Z" fill="white"/>
<path d="M146.414 0.22484C146.36 0.22484 145.022 0 142.913 0C136.992 0 123.223 2.05568 123.223 21.1243V23.2763H115.654V30.5569H123.223V79.101H131.714V30.5569H145.943V23.2763H131.714V21.1243C131.714 16.1136 133.266 7.71952 143.684 7.71952C145.15 7.71952 146.221 7.92295 146.232 7.93365L146.831 8.05143V0.299787L146.414 0.235547V0.22484Z" fill="white"/>
<path d="M186.521 72.2166L185.911 72.3558C185.911 72.3558 184.926 72.5699 183.427 72.5699C178.866 72.5699 171.211 70.6963 171.211 58.1052V30.7282H185.386V23.2978H171.211V6.97006H162.656V23.2871H155.118V30.7175H162.549V58.8868C162.549 77.6342 175.204 80.4393 182.752 80.4393C184.808 80.4393 186.061 80.2145 186.104 80.2038L186.521 80.1288V72.2166Z" fill="white"/>
<path d="M203.802 62.2487C203.802 62.2487 210.012 68.4585 219.219 68.4585C223.213 68.4585 226.65 66.6812 226.65 63.3622C226.65 54.936 199.155 56.0388 199.155 37.8588C199.155 27.3235 208.577 21.2314 220.783 21.2314C232.988 21.2314 239.744 27.6661 239.744 27.6661L234.53 38.0944C234.53 38.0944 229.316 33.2121 220.665 33.2121C217.003 33.2121 213.459 34.7646 213.459 38.3085C213.459 46.2957 240.954 45.2893 240.954 63.4799C240.954 72.9018 232.753 80.45 219.337 80.45C205.258 80.45 197.378 72.1309 197.378 72.1309L203.812 62.2594L203.802 62.2487Z" fill="white"/>
<path d="M289.766 43.8439C289.541 36.1886 284.776 32.0879 278.567 32.0879C271.361 32.0879 266.372 36.5205 265.044 43.8439H289.766ZM278.898 21.2206C295.194 21.2206 303.963 33.0837 303.963 48.0516C303.963 49.7111 303.631 53.4799 303.631 53.4799H264.594C265.483 63.3515 273.138 68.4478 281.564 68.4478C290.654 68.4478 297.86 62.238 297.86 62.238L303.299 72.3344C303.299 72.3344 294.648 80.4286 280.569 80.4286C261.832 80.4286 250.194 66.9061 250.194 50.8246C250.194 33.4156 262.057 21.2206 278.909 21.2206" fill="white"/>
<path d="M318.138 22.559H331.661V32.3128C331.661 34.422 331.436 36.3064 331.436 36.3064H331.661C334.209 28.2121 340.976 21.7774 349.627 21.7774C350.965 21.7774 352.175 22.0022 352.175 22.0022V35.8567C352.175 35.8567 350.73 35.6319 348.845 35.6319C342.86 35.6319 336.094 39.0687 333.428 47.4949C332.539 50.2679 332.207 53.3728 332.207 56.7026V79.101H318.128V22.559H318.138Z" fill="white"/>
<path d="M358.31 22.559H373.171L384.927 57.602C386.04 60.9318 386.811 64.6898 386.929 64.6898H387.143C387.261 64.6898 388.032 60.9318 389.145 57.602L400.901 22.559H415.762L395.473 79.1117H378.845L358.331 22.559H358.31Z" fill="white"/>
<path d="M458.803 43.8439C458.578 36.1886 453.814 32.0879 447.604 32.0879C440.398 32.0879 435.409 36.5205 434.081 43.8439H458.803ZM447.936 21.2206C464.231 21.2206 472.989 33.0837 472.989 48.0516C472.989 49.7111 472.657 53.4799 472.657 53.4799H433.621C434.51 63.3515 442.154 68.4478 450.591 68.4478C459.681 68.4478 466.887 62.238 466.887 62.238L472.315 72.3344C472.315 72.3344 463.664 80.4286 449.585 80.4286C430.848 80.4286 419.199 66.9061 419.199 50.8246C419.199 33.4156 431.062 21.2206 447.914 21.2206" fill="white"/>
</g>
<defs>
<clipPath id="clip0_68_124">
<rect width="473" height="80.4393" fill="white"/>
</clipPath>
</defs>
</svg>
