<svg width="236" height="50" viewBox="0 0 236 50" fill="none" xmlns="http://www.w3.org/2000/svg">
<g id="Group 38">
<g id="Group">
<path id="Vector" d="M3.7293 23.4108H3.71811C2.50951 24.0039 1.27014 24.5634 0 25.0698C2.60184 26.9191 5.81636 27.901 9.17916 27.694C9.71911 27.6549 10.2563 27.5933 10.8074 27.4954C18.5765 26.0993 23.7355 18.6659 22.3422 10.8968C22.2639 10.4576 22.1632 10.0323 22.0541 9.60986C16.9455 15.2528 10.7626 19.9724 3.7321 23.4136L3.7293 23.4108Z" fill="white"/>
<path id="Vector_2" d="M39.2793 22.3786C39.7185 22.3002 40.155 22.1967 40.5886 22.0848C34.9177 16.9567 30.1924 10.7403 26.7597 3.68733C26.1694 2.47874 25.6239 1.24776 25.1315 0C23.2682 2.58225 22.2722 5.78559 22.4765 9.1372C22.5072 9.70233 22.5744 10.2731 22.6779 10.8354C24.0739 18.6045 31.5102 23.7746 39.2793 22.3814V22.3786Z" fill="white"/>
<path id="Vector_3" d="M10.8522 27.7417C10.413 27.82 9.97653 27.9235 9.55408 28.0326C15.2585 33.1552 20.0174 39.366 23.4837 46.4134C24.0572 47.5912 24.5972 48.7858 25.0951 50C26.8745 47.4569 27.8145 44.3431 27.6494 41.0894C27.6242 40.4879 27.5487 39.8864 27.4424 39.2877C26.0464 31.5185 18.6213 26.3456 10.8522 27.7417Z" fill="white"/>
<path id="Vector_4" d="M40.9523 22.4261C40.4124 22.4652 39.864 22.5296 39.3241 22.6247C31.5549 24.0207 26.3848 31.457 27.7781 39.2261C27.862 39.6877 27.9655 40.1465 28.0942 40.5886C33.1748 34.9149 39.3408 30.1644 46.3406 26.6953C47.5604 26.091 48.8054 25.5203 50.0783 25.0111C47.4905 23.1814 44.2899 22.2107 40.9523 22.4261Z" fill="white"/>
</g>
<g id="Group_2">
<path id="Vector_5" d="M67.9585 21.3998C66.6939 21.3998 66.0591 20.7443 66.0591 19.4436V1.96139C66.0591 0.655517 66.6939 0 67.9585 0C69.2231 0 69.858 0.655517 69.858 1.96139V19.4436C69.858 20.7495 69.2231 21.3998 67.9585 21.3998Z" fill="white"/>
<path id="Vector_6" d="M76.119 21.3998C74.8699 21.3998 74.2505 20.7649 74.2505 19.5004V8.27913C74.2505 7.03003 74.875 6.41064 76.119 6.41064C77.3629 6.41064 77.9565 7.03519 77.9565 8.27913V12.2587H84.3671V8.27913C84.3671 7.03003 84.9814 6.41064 86.2098 6.41064C87.4383 6.41064 88.0783 7.03519 88.0783 8.27913V19.5004C88.0783 20.7649 87.4537 21.3998 86.2098 21.3998C84.9659 21.3998 84.3671 20.7649 84.3671 19.5004V15.1646H77.9565V19.5004C77.9565 20.7649 77.3423 21.3998 76.119 21.3998Z" fill="white"/>
<path id="Vector_7" d="M102.448 21.3999C101.22 21.3999 100.605 20.765 100.605 19.5004V15.1647H99.1188C98.4633 15.1647 97.9523 15.2834 97.5755 15.5209C97.1987 15.7583 96.8116 16.2125 96.4193 16.8887L94.4321 20.3624C94.1328 20.8786 93.756 21.1882 93.2914 21.2966C92.8269 21.405 92.3882 21.3586 91.9701 21.1624C91.552 20.9663 91.2629 20.6618 91.0926 20.2592C90.9223 19.8514 90.9894 19.392 91.2836 18.881L93.0643 15.7635C93.4411 15.1131 93.8231 14.5608 94.205 14.1169C94.5922 13.673 95.0102 13.3427 95.4645 13.1207L92.4966 9.11537C92.1404 8.64051 92.0062 8.19661 92.094 7.77853C92.1817 7.36044 92.3933 7.03526 92.734 6.79783C93.0695 6.5604 93.4618 6.46749 93.9057 6.51395C94.3496 6.56556 94.7522 6.82364 95.1083 7.2985L98.8504 12.2846H100.6V8.33597C100.6 7.07139 101.214 6.43652 102.443 6.43652C103.671 6.43652 104.311 7.07139 104.311 8.33597V12.2846H106.061L109.772 7.2985C110.128 6.82364 110.531 6.55524 110.975 6.49846C111.419 6.44168 111.816 6.52943 112.162 6.76686C112.508 7.00429 112.725 7.32947 112.818 7.74756C112.905 8.16565 112.771 8.60954 112.415 9.0844L109.416 13.1207C109.891 13.3582 110.319 13.6885 110.707 14.1169C111.094 14.5453 111.476 15.0925 111.847 15.7635L113.597 18.881C113.891 19.3972 113.958 19.8566 113.788 20.2592C113.618 20.6669 113.329 20.9663 112.911 21.1624C112.492 21.3586 112.059 21.405 111.605 21.2966C111.15 21.1882 110.774 20.8786 110.474 20.3624L108.487 16.8887C108.11 16.2177 107.723 15.7583 107.331 15.5209C106.933 15.2834 106.422 15.1647 105.788 15.1647H104.301V19.5004C104.301 20.765 103.676 21.3999 102.433 21.3999H102.448Z" fill="white"/>
<path id="Vector_8" d="M123.992 21.4565C122.351 21.4565 120.937 21.152 119.75 20.5378C118.562 19.9235 117.649 19.0512 117.004 17.926C116.358 16.7956 116.038 15.4639 116.038 13.9206C116.038 12.3773 116.348 11.1024 116.973 9.97205C117.597 8.84167 118.459 7.95904 119.553 7.31385C120.653 6.66865 121.902 6.34863 123.306 6.34863C125.365 6.34863 126.991 7.00415 128.189 8.31003C129.386 9.6159 129.985 11.3966 129.985 13.6522C129.985 14.3852 129.51 14.7516 128.56 14.7516H119.595C119.873 17.3427 121.355 18.6383 124.044 18.6383C124.56 18.6383 125.138 18.5764 125.778 18.4473C126.424 18.3183 127.027 18.0963 127.606 17.7815C128.122 17.4821 128.555 17.3892 128.911 17.4976C129.268 17.606 129.52 17.8176 129.67 18.1376C129.82 18.4525 129.84 18.8035 129.727 19.1906C129.619 19.5777 129.335 19.908 128.88 20.1868C128.189 20.6203 127.394 20.9455 126.491 21.152C125.587 21.3584 124.756 21.4617 123.982 21.4617L123.992 21.4565ZM123.456 8.87263C122.367 8.87263 121.484 9.20813 120.813 9.8843C120.142 10.5553 119.734 11.4689 119.595 12.6148H126.898C126.821 11.407 126.485 10.483 125.902 9.83785C125.319 9.19265 124.503 8.87263 123.456 8.87263Z" fill="white"/>
<path id="Vector_9" d="M135.183 21.3998C133.933 21.3998 133.314 20.7649 133.314 19.5004V8.27913C133.314 7.03003 133.939 6.41064 135.183 6.41064C136.427 6.41064 137.025 7.03519 137.025 8.27913V12.2587H143.436V8.27913C143.436 7.03003 144.05 6.41064 145.279 6.41064C146.507 6.41064 147.147 7.03519 147.147 8.27913V19.5004C147.147 20.7649 146.523 21.3998 145.279 21.3998C144.035 21.3998 143.436 20.7649 143.436 19.5004V15.1646H137.025V19.5004C137.025 20.7649 136.411 21.3998 135.183 21.3998Z" fill="white"/>
<path id="Vector_10" d="M158.544 21.4565C156.902 21.4565 155.488 21.152 154.301 20.5378C153.114 19.9235 152.2 19.0512 151.555 17.926C150.91 16.7956 150.59 15.4639 150.59 13.9206C150.59 12.3773 150.9 11.1024 151.524 9.97205C152.149 8.84167 153.011 7.95904 154.105 7.31385C155.204 6.66865 156.453 6.34863 157.857 6.34863C159.917 6.34863 161.543 7.00415 162.74 8.31003C163.938 9.6159 164.536 11.3966 164.536 13.6522C164.536 14.3852 164.062 14.7516 163.112 14.7516H154.146C154.425 17.3427 155.906 18.6383 158.595 18.6383C159.112 18.6383 159.69 18.5764 160.33 18.4473C160.975 18.3183 161.579 18.0963 162.157 17.7815C162.673 17.4821 163.107 17.3892 163.463 17.4976C163.819 17.606 164.072 17.8176 164.222 18.1376C164.371 18.4525 164.392 18.8035 164.278 19.1906C164.17 19.5777 163.886 19.908 163.432 20.1868C162.74 20.6203 161.945 20.9455 161.042 21.152C160.139 21.3584 159.308 21.4617 158.533 21.4617L158.544 21.4565ZM158.007 8.87263C156.918 8.87263 156.035 9.20813 155.364 9.8843C154.693 10.5553 154.286 11.4689 154.146 12.6148H161.45C161.372 11.407 161.037 10.483 160.454 9.83785C159.87 9.19265 159.055 8.87263 158.007 8.87263Z" fill="white"/>
<path id="Vector_11" d="M169.729 26.7419C168.5 26.7419 167.891 26.1173 167.891 24.8734V8.28415C167.891 7.03505 168.495 6.41566 169.703 6.41566C170.911 6.41566 171.541 7.04021 171.541 8.28415V8.90869C171.959 8.13446 172.578 7.52024 173.409 7.0557C174.24 6.59116 175.19 6.35889 176.258 6.35889C177.523 6.35889 178.638 6.66342 179.598 7.27765C180.558 7.89187 181.306 8.75901 181.838 9.87391C182.375 10.994 182.638 12.3308 182.638 13.8948C182.638 15.4587 182.37 16.7801 181.838 17.9156C181.301 19.0512 180.563 19.9286 179.613 20.5428C178.664 21.1571 177.543 21.4616 176.258 21.4616C175.231 21.4616 174.302 21.2397 173.481 20.7958C172.661 20.3519 172.031 19.7531 171.597 18.9995V24.8785C171.597 26.1276 170.973 26.747 169.729 26.747V26.7419ZM175.221 18.6382C176.331 18.6382 177.218 18.2356 177.889 17.4356C178.56 16.6355 178.901 15.4535 178.901 13.8896C178.901 12.3256 178.565 11.123 177.889 10.3436C177.218 9.56422 176.325 9.17194 175.221 9.17194C174.116 9.17194 173.223 9.56422 172.547 10.3436C171.876 11.123 171.535 12.3102 171.535 13.8896C171.535 15.469 171.871 16.6355 172.547 17.4356C173.218 18.2356 174.111 18.6382 175.221 18.6382Z" fill="white"/>
<path id="Vector_12" d="M187.954 21.3998C186.705 21.3998 186.086 20.7649 186.086 19.5004V8.27913C186.086 7.03003 186.71 6.41064 187.954 6.41064C189.198 6.41064 189.797 7.03519 189.797 8.27913V12.2587H196.208V8.27913C196.208 7.03003 196.822 6.41064 198.05 6.41064C199.279 6.41064 199.919 7.03519 199.919 8.27913V19.5004C199.919 20.7649 199.294 21.3998 198.05 21.3998C196.806 21.3998 196.208 20.7649 196.208 19.5004V15.1646H189.797V19.5004C189.797 20.7649 189.183 21.3998 187.954 21.3998Z" fill="white"/>
<path id="Vector_13" d="M205.849 21.3998C204.704 21.3998 204.131 20.7391 204.131 19.4126V8.19138C204.131 7.00422 204.693 6.41064 205.824 6.41064C206.954 6.41064 207.486 7.00422 207.486 8.19138V16.326L214.046 7.5978C214.263 7.31908 214.531 7.05584 214.846 6.79776C215.161 6.53968 215.6 6.41064 216.152 6.41064C217.277 6.41064 217.845 7.06616 217.845 8.36687V19.6139C217.845 20.8011 217.293 21.3946 216.183 21.3946C215.073 21.3946 214.49 20.8011 214.49 19.6139V11.4793L207.93 20.2075C207.733 20.4862 207.48 20.7546 207.171 21.0075C206.866 21.2656 206.422 21.3946 205.849 21.3946V21.3998Z" fill="white"/>
<path id="Vector_14" d="M223.781 21.3998C222.635 21.3998 222.062 20.7391 222.062 19.4126V8.19138C222.062 7.00423 222.625 6.41065 223.755 6.41065C224.885 6.41065 225.417 7.00423 225.417 8.19138V16.326L231.977 7.59781C232.194 7.31908 232.462 7.05584 232.777 6.79777C233.092 6.53969 233.531 6.41065 234.083 6.41065C235.208 6.41065 235.776 7.06617 235.776 8.36688V19.6139C235.776 20.8011 235.224 21.3946 234.114 21.3946C233.004 21.3946 232.421 20.8011 232.421 19.6139V11.4793L225.861 20.2075C225.665 20.4862 225.412 20.7546 225.102 21.0075C224.798 21.2656 224.354 21.3946 223.781 21.3946V21.3998ZM228.916 4.81056C227.688 4.81056 226.62 4.52668 225.711 3.96407C224.803 3.40146 224.157 2.60142 223.781 1.57427C223.502 0.820682 223.693 0.335496 224.343 0.11871C224.916 -0.0774287 225.381 0.170327 225.737 0.861976C226.392 2.12656 227.451 2.76143 228.911 2.76143C230.372 2.76143 231.435 2.12656 232.086 0.861976C232.442 0.170327 232.906 -0.0774287 233.479 0.11871C233.779 0.21678 233.98 0.392274 234.088 0.640029C234.197 0.887783 234.161 1.19748 233.985 1.57427C233.49 2.60142 232.829 3.40146 231.998 3.96407C231.167 4.52668 230.14 4.81056 228.911 4.81056H228.916Z" fill="white"/>
<path id="Vector_15" d="M75.1589 46.258C74.2711 46.258 73.8272 45.7986 73.8272 44.885V40.2293H72.0413C71.5303 40.2293 71.1019 40.3067 70.7612 40.4667C70.4206 40.6267 70.1264 40.9416 69.8786 41.4113L67.6746 45.4425C67.4527 45.8606 67.1688 46.1083 66.823 46.2012C66.4771 46.289 66.152 46.258 65.8474 46.1083C65.5429 45.9586 65.3313 45.716 65.2126 45.3909C65.0939 45.0657 65.1455 44.6941 65.3674 44.2811L66.8436 41.5816C67.272 40.7764 67.8243 40.25 68.5056 40.0022C67.4114 39.7802 66.5649 39.3054 65.9713 38.5776C65.3777 37.8498 65.0784 36.9311 65.0784 35.8265C65.0784 34.4432 65.5171 33.3644 66.3894 32.5954C67.2617 31.8263 68.5005 31.4443 70.1109 31.4443H75.0763C76.0157 31.4443 76.4906 31.914 76.4906 32.8586V44.8902C76.4906 45.8038 76.0467 46.2632 75.1589 46.2632V46.258ZM70.5651 38.2576H73.8272V33.5399H70.5651C68.6244 33.5399 67.654 34.3245 67.654 35.8884C67.654 37.4524 68.6244 38.2576 70.5651 38.2576Z" fill="white"/>
<path id="Vector_16" d="M80.8522 50C79.9953 50 79.5618 49.5613 79.5618 48.689V37.0755C79.5618 36.2032 79.985 35.7644 80.8315 35.7644C81.678 35.7644 82.1219 36.2032 82.1219 37.0755V37.5142C82.4109 36.9722 82.8497 36.5387 83.4329 36.2135C84.0162 35.8883 84.682 35.7231 85.4253 35.7231C86.3131 35.7231 87.0925 35.9399 87.7635 36.3683C88.4345 36.7967 88.9558 37.4058 89.3326 38.1852C89.7042 38.9698 89.8952 39.904 89.8952 40.9983C89.8952 42.0925 89.7094 43.0164 89.3326 43.8113C88.961 44.6062 88.4396 45.2204 87.7738 45.6488C87.108 46.0772 86.3286 46.294 85.4253 46.294C84.7027 46.294 84.0575 46.1392 83.4845 45.8243C82.9116 45.5146 82.4677 45.0914 82.1632 44.5649V48.6786C82.1632 49.5509 81.7245 49.9897 80.8522 49.9897V50ZM84.6975 44.3275C85.4717 44.3275 86.0963 44.0487 86.566 43.4861C87.0357 42.9235 87.2731 42.0977 87.2731 41.0034C87.2731 39.9092 87.0357 39.0678 86.566 38.5207C86.0963 37.9736 85.4717 37.7 84.6975 37.7C83.9233 37.7 83.2987 37.9736 82.829 38.5207C82.3593 39.0678 82.1219 39.8937 82.1219 41.0034C82.1219 42.1131 82.3593 42.9235 82.829 43.4861C83.2987 44.0487 83.9233 44.3275 84.6975 44.3275Z" fill="white"/>
<path id="Vector_17" d="M93.4411 46.2581C92.6772 46.2581 92.3004 45.8503 92.3004 45.0348V37.1789C92.3004 36.2395 92.6927 35.7646 93.4824 35.7646C93.885 35.7646 94.1844 35.8627 94.3857 36.0537C94.587 36.2498 94.7573 36.4615 94.8967 36.6989L97.9523 41.9327L101.008 36.6989C101.158 36.4356 101.338 36.2137 101.54 36.033C101.741 35.8524 102.03 35.7646 102.402 35.7646C103.191 35.7646 103.584 36.2343 103.584 37.1789V45.0348C103.584 45.8503 103.202 46.2581 102.443 46.2581C101.684 46.2581 101.302 45.8503 101.302 45.0348V39.7803L98.8298 43.9973C98.7627 44.1212 98.6594 44.2451 98.5304 44.3586C98.4014 44.4722 98.2104 44.5341 97.9575 44.5341C97.6942 44.5341 97.4981 44.4722 97.3742 44.3483C97.2503 44.2244 97.1523 44.1057 97.0852 43.9973L94.5921 39.7803V45.0348C94.5921 45.8503 94.2102 46.2581 93.4514 46.2581H93.4411Z" fill="white"/>
<path id="Vector_18" d="M109.896 46.2995C109.163 46.2995 108.508 46.1549 107.935 45.871C107.362 45.5872 106.908 45.2052 106.582 44.72C106.257 44.2348 106.092 43.6877 106.092 43.0786C106.092 42.3302 106.288 41.7366 106.675 41.3031C107.062 40.8643 107.692 40.5495 108.564 40.3585C109.437 40.1624 110.608 40.0695 112.074 40.0695H112.802V39.6307C112.802 38.9391 112.652 38.4384 112.348 38.1339C112.043 37.8293 111.532 37.6745 110.81 37.6745C110.407 37.6745 109.974 37.7209 109.509 37.819C109.044 37.9171 108.559 38.0823 108.043 38.3197C107.713 38.4745 107.434 38.49 107.212 38.3713C106.99 38.2526 106.84 38.0668 106.763 37.8087C106.686 37.5506 106.701 37.2925 106.804 37.0293C106.908 36.7661 107.119 36.5699 107.439 36.446C108.074 36.1828 108.688 35.997 109.277 35.8834C109.865 35.775 110.402 35.7183 110.887 35.7183C112.368 35.7183 113.468 36.0589 114.191 36.7454C114.913 37.4319 115.269 38.4952 115.269 39.9353V44.9213C115.269 45.8091 114.867 46.253 114.067 46.253C113.267 46.253 112.838 45.8091 112.838 44.9213V44.4619C112.601 45.0297 112.229 45.4788 111.718 45.8039C111.207 46.1291 110.598 46.2943 109.891 46.2943L109.896 46.2995ZM110.438 44.5136C111.114 44.5136 111.682 44.2761 112.131 43.8064C112.58 43.3367 112.807 42.738 112.807 42.0205V41.5611H112.1C110.799 41.5611 109.896 41.6592 109.39 41.8605C108.884 42.0618 108.632 42.4231 108.632 42.9496C108.632 43.409 108.792 43.7806 109.112 44.0697C109.432 44.3587 109.875 44.5084 110.443 44.5084L110.438 44.5136Z" fill="white"/>
<path id="Vector_19" d="M119.492 50C118.635 50 118.201 49.5613 118.201 48.689V37.0755C118.201 36.2032 118.624 35.7644 119.471 35.7644C120.317 35.7644 120.761 36.2032 120.761 37.0755V37.5142C121.05 36.9722 121.489 36.5387 122.072 36.2135C122.656 35.8883 123.321 35.7231 124.065 35.7231C124.952 35.7231 125.732 35.9399 126.403 36.3683C127.074 36.7967 127.595 37.4058 127.972 38.1852C128.344 38.9698 128.535 39.904 128.535 40.9983C128.535 42.0925 128.349 43.0164 127.972 43.8113C127.6 44.6062 127.079 45.2204 126.413 45.6488C125.747 46.0772 124.968 46.294 124.065 46.294C123.342 46.294 122.697 46.1392 122.124 45.8243C121.551 45.5146 121.107 45.0914 120.803 44.5649V48.6786C120.803 49.5509 120.364 49.9897 119.492 49.9897V50ZM123.337 44.3275C124.111 44.3275 124.736 44.0487 125.205 43.4861C125.675 42.9235 125.913 42.0977 125.913 41.0034C125.913 39.9092 125.675 39.0678 125.205 38.5207C124.736 37.9736 124.111 37.7 123.337 37.7C122.563 37.7 121.938 37.9736 121.468 38.5207C120.999 39.0678 120.761 39.8937 120.761 41.0034C120.761 42.1131 120.999 42.9235 121.468 43.4861C121.938 44.0487 122.563 44.3275 123.337 44.3275Z" fill="white"/>
<path id="Vector_20" d="M135.595 46.2994C134.543 46.2994 133.629 46.0826 132.855 45.6542C132.08 45.2258 131.477 44.6116 131.048 43.8167C130.62 43.0218 130.403 42.0824 130.403 41.0036C130.403 39.9249 130.62 38.9906 131.048 38.2009C131.477 37.4112 132.08 36.8021 132.855 36.3737C133.629 35.9453 134.543 35.7285 135.595 35.7285C136.648 35.7285 137.562 35.9453 138.336 36.3737C139.111 36.8021 139.714 37.4112 140.143 38.2009C140.571 38.9906 140.788 39.9249 140.788 41.0036C140.788 42.0824 140.571 43.0218 140.143 43.8167C139.714 44.6116 139.111 45.2258 138.336 45.6542C137.562 46.0826 136.648 46.2994 135.595 46.2994ZM135.595 44.3277C136.37 44.3277 136.994 44.0489 137.464 43.4863C137.934 42.9237 138.171 42.0979 138.171 41.0036C138.171 39.9094 137.934 39.068 137.464 38.5209C136.994 37.9738 136.37 37.7002 135.595 37.7002C134.821 37.7002 134.197 37.9738 133.727 38.5209C133.257 39.068 133.02 39.8939 133.02 41.0036C133.02 42.1134 133.257 42.9237 133.727 43.4863C134.197 44.0489 134.821 44.3277 135.595 44.3277Z" fill="white"/>
<path id="Vector_21" d="M144.51 46.2577C143.637 46.2577 143.198 45.8139 143.198 44.9261V37.1115C143.198 36.2237 143.632 35.7798 144.51 35.7798C145.387 35.7798 145.8 36.2237 145.8 37.1115V39.8729H147.276L149.872 36.3837C150.12 36.0533 150.404 35.8624 150.714 35.8211C151.023 35.7798 151.307 35.8417 151.555 36.0069C151.803 36.1721 151.963 36.3992 152.035 36.6934C152.102 36.9824 152.014 37.2973 151.767 37.6276L149.687 40.4716C150.007 40.6368 150.29 40.8691 150.549 41.1685C150.807 41.4678 151.065 41.8446 151.328 42.2988L152.556 44.4822C152.763 44.8435 152.809 45.1687 152.691 45.4577C152.572 45.7467 152.371 45.9584 152.076 46.0926C151.787 46.2216 151.483 46.2526 151.163 46.1752C150.843 46.0977 150.58 45.8809 150.373 45.5196L148.979 43.0886C148.716 42.6188 148.448 42.2988 148.179 42.1337C147.911 41.9685 147.545 41.8859 147.09 41.8859H145.8V44.9209C145.8 45.8087 145.372 46.2526 144.51 46.2526V46.2577Z" fill="white"/>
<path id="Vector_22" d="M161.899 46.2579C161.011 46.2579 160.567 45.7985 160.567 44.885V32.6263C160.567 31.7281 161.011 31.2739 161.899 31.2739C162.787 31.2739 163.231 31.723 163.231 32.6263V37.6536H165.311L168.903 31.9604C169.14 31.5888 169.424 31.3668 169.755 31.3049C170.085 31.243 170.395 31.2894 170.679 31.4494C170.963 31.6094 171.153 31.8469 171.252 32.1566C171.35 32.4662 171.272 32.8121 171.024 33.1837L167.783 38.1285C168.335 38.3762 168.826 38.7272 169.249 39.1763C169.672 39.6253 170.049 40.1931 170.379 40.8693L172.083 44.3585C172.305 44.8024 172.341 45.1792 172.196 45.4889C172.052 45.7985 171.819 46.0205 171.499 46.1444C171.179 46.2682 170.854 46.2734 170.513 46.165C170.173 46.0566 169.91 45.7985 169.713 45.3959L168.072 41.8654C167.742 41.1428 167.339 40.6318 166.88 40.3273C166.415 40.0228 165.837 39.8679 165.145 39.8679H163.236V44.8746C163.236 45.7882 162.792 46.2476 161.904 46.2476L161.899 46.2579Z" fill="white"/>
<path id="Vector_23" d="M177.833 46.2995C177.1 46.2995 176.444 46.1549 175.871 45.871C175.298 45.5872 174.844 45.2052 174.519 44.72C174.194 44.2348 174.028 43.6877 174.028 43.0786C174.028 42.3302 174.225 41.7366 174.612 41.3031C174.999 40.8643 175.629 40.5495 176.501 40.3585C177.373 40.1624 178.545 40.0695 180.011 40.0695H180.738V39.6307C180.738 38.9391 180.589 38.4384 180.284 38.1339C179.98 37.8293 179.469 37.6745 178.746 37.6745C178.343 37.6745 177.91 37.7209 177.445 37.819C176.981 37.9171 176.496 38.0823 175.98 38.3197C175.649 38.4745 175.37 38.49 175.148 38.3713C174.927 38.2526 174.777 38.0668 174.699 37.8087C174.622 37.5506 174.638 37.2925 174.741 37.0293C174.844 36.7661 175.056 36.5699 175.376 36.446C176.01 36.1828 176.625 35.997 177.213 35.8834C177.802 35.775 178.338 35.7183 178.824 35.7183C180.305 35.7183 181.404 36.0589 182.127 36.7454C182.85 37.4319 183.206 38.4952 183.206 39.9353V44.9213C183.206 45.8091 182.803 46.253 182.003 46.253C181.203 46.253 180.775 45.8091 180.775 44.9213V44.4619C180.537 45.0297 180.166 45.4788 179.655 45.8039C179.144 46.1291 178.534 46.2943 177.827 46.2943L177.833 46.2995ZM178.374 44.5136C179.051 44.5136 179.618 44.2761 180.067 43.8064C180.517 43.3367 180.744 42.738 180.744 42.0205V41.5611H180.036C178.736 41.5611 177.833 41.6592 177.327 41.8605C176.821 42.0618 176.568 42.4231 176.568 42.9496C176.568 43.409 176.728 43.7806 177.048 44.0697C177.368 44.3587 177.812 44.5084 178.38 44.5084L178.374 44.5136Z" fill="white"/>
<path id="Vector_24" d="M187.433 50C186.576 50 186.143 49.5613 186.143 48.689V37.0755C186.143 36.2032 186.566 35.7644 187.412 35.7644C188.259 35.7644 188.703 36.2032 188.703 37.0755V37.5142C188.992 36.9722 189.431 36.5387 190.014 36.2135C190.597 35.8883 191.263 35.7231 192.006 35.7231C192.894 35.7231 193.673 35.9399 194.344 36.3683C195.015 36.7967 195.537 37.4058 195.914 38.1852C196.285 38.9698 196.476 39.904 196.476 40.9983C196.476 42.0925 196.29 43.0164 195.914 43.8113C195.542 44.6062 195.021 45.2204 194.355 45.6488C193.689 46.0772 192.909 46.294 192.006 46.294C191.284 46.294 190.638 46.1392 190.065 45.8243C189.493 45.5146 189.049 45.0914 188.744 44.5649V48.6786C188.744 49.5509 188.305 49.9897 187.433 49.9897V50ZM191.278 44.3275C192.053 44.3275 192.677 44.0487 193.147 43.4861C193.617 42.9235 193.854 42.0977 193.854 41.0034C193.854 39.9092 193.617 39.0678 193.147 38.5207C192.677 37.9736 192.053 37.7 191.278 37.7C190.504 37.7 189.88 37.9736 189.41 38.5207C188.94 39.0678 188.703 39.8937 188.703 41.0034C188.703 42.1131 188.94 42.9235 189.41 43.4861C189.88 44.0487 190.504 44.3275 191.278 44.3275Z" fill="white"/>
<path id="Vector_25" d="M199.609 36.5334C199.428 36.7554 199.237 36.8792 199.036 36.905C198.835 36.9309 198.659 36.8947 198.505 36.7915C198.355 36.6883 198.267 36.5334 198.257 36.3321C198.241 36.1308 198.334 35.914 198.525 35.6766C198.69 35.4701 198.825 35.2533 198.933 35.0314C199.041 34.8095 199.108 34.603 199.15 34.4069C198.721 34.3656 198.375 34.2107 198.112 33.9372C197.849 33.6688 197.72 33.3126 197.72 32.8687C197.72 32.4248 197.859 32.0429 198.133 31.759C198.412 31.4751 198.783 31.3306 199.253 31.3306C199.723 31.3306 200.12 31.4957 200.394 31.8209C200.672 32.1461 200.807 32.6158 200.807 33.2249C200.807 33.7255 200.729 34.2468 200.569 34.794C200.409 35.3411 200.089 35.9192 199.604 36.5283L199.609 36.5334Z" fill="white"/>
<path id="Vector_26" d="M207.439 46.2992C206.345 46.2992 205.395 46.0824 204.58 45.6437C203.769 45.2049 203.145 44.5907 202.701 43.7958C202.257 43.0009 202.035 42.0564 202.035 40.9621C202.035 39.3414 202.525 38.0613 203.511 37.1271C204.497 36.1928 205.844 35.7231 207.563 35.7231C208.157 35.7231 208.755 35.8006 209.349 35.9503C209.943 36.1051 210.438 36.3116 210.825 36.5748C211.104 36.7555 211.264 36.9671 211.305 37.2097C211.346 37.4523 211.305 37.6794 211.192 37.8858C211.073 38.0923 210.908 38.2368 210.691 38.3246C210.474 38.4072 210.252 38.3813 210.015 38.242C209.654 38.02 209.266 37.8549 208.853 37.7413C208.441 37.6329 208.028 37.5761 207.63 37.5761C206.717 37.5761 206.009 37.8033 205.509 38.2523C205.008 38.7014 204.678 39.2949 204.513 40.0279H208.358C209.091 40.0279 209.457 40.3376 209.457 40.9621C209.457 41.5867 209.091 41.8964 208.358 41.8964H204.513C204.678 42.7274 205.029 43.3622 205.56 43.7958C206.092 44.2294 206.784 44.4513 207.63 44.4513C208.017 44.4513 208.42 44.3946 208.833 44.2862C209.251 44.1778 209.643 44.0074 210.015 43.7855C210.252 43.6461 210.474 43.6203 210.691 43.7029C210.908 43.7855 211.068 43.93 211.181 44.1416C211.295 44.3533 211.321 44.5752 211.274 44.8178C211.228 45.0604 211.063 45.272 210.784 45.4527C210.397 45.7159 209.896 45.9224 209.277 46.0772C208.662 46.2269 208.048 46.3043 207.439 46.3043V46.2992Z" fill="white"/>
<path id="Vector_27" d="M214.547 50C213.69 50 213.256 49.5613 213.256 48.689V37.0755C213.256 36.2032 213.68 35.7644 214.526 35.7644C215.373 35.7644 215.816 36.2032 215.816 37.0755V37.5142C216.106 36.9722 216.544 36.5387 217.128 36.2135C217.711 35.8883 218.377 35.7231 219.12 35.7231C220.008 35.7231 220.787 35.9399 221.458 36.3683C222.129 36.7967 222.65 37.4058 223.027 38.1852C223.399 38.9698 223.59 39.904 223.59 40.9983C223.59 42.0925 223.404 43.0164 223.027 43.8113C222.656 44.6062 222.134 45.2204 221.468 45.6488C220.803 46.0772 220.023 46.294 219.12 46.294C218.397 46.294 217.752 46.1392 217.179 45.8243C216.606 45.5146 216.162 45.0914 215.858 44.5649V48.6786C215.858 49.5509 215.419 49.9897 214.547 49.9897V50ZM218.392 44.3275C219.166 44.3275 219.791 44.0487 220.261 43.4861C220.73 42.9235 220.968 42.0977 220.968 41.0034C220.968 39.9092 220.73 39.0678 220.261 38.5207C219.791 37.9736 219.166 37.7 218.392 37.7C217.618 37.7 216.993 37.9736 216.524 38.5207C216.054 39.0678 215.816 39.8937 215.816 41.0034C215.816 42.1131 216.054 42.9235 216.524 43.4861C216.993 44.0487 217.618 44.3275 218.392 44.3275Z" fill="white"/>
<path id="Vector_28" d="M227.198 46.2579C226.392 46.2579 225.995 45.7933 225.995 44.8643V37.0084C225.995 36.1774 226.387 35.7593 227.177 35.7593C227.967 35.7593 228.338 36.1774 228.338 37.0084V42.7016L232.932 36.5954C233.087 36.3993 233.273 36.2135 233.495 36.0328C233.717 35.8522 234.021 35.7644 234.408 35.7644C235.198 35.7644 235.59 36.2238 235.59 37.1374V45.0139C235.59 45.845 235.203 46.263 234.429 46.263C233.655 46.263 233.247 45.8501 233.247 45.0139V39.3208L228.653 45.4269C228.514 45.623 228.338 45.8088 228.122 45.9895C227.905 46.1701 227.6 46.2579 227.198 46.2579Z" fill="white"/>
</g>
</g>
</svg>
