<svg width="24" height="18" viewBox="0 0 24 18" fill="none" xmlns="http://www.w3.org/2000/svg">
<path d="M0 1.20829C0 0.632996 0.46637 0.166626 1.04167 0.166626H22.9583C23.5336 0.166626 24 0.632996 24 1.20829C24 1.78359 23.5336 2.24996 22.9583 2.24996H1.04167C0.466369 2.24996 0 1.78359 0 1.20829ZM0 16.8333C0 16.258 0.46637 15.7916 1.04167 15.7916H22.9583C23.5336 15.7916 24 16.258 24 16.8333C24 17.4086 23.5336 17.875 22.9583 17.875H1.04167C0.466369 17.875 0 17.4086 0 16.8333ZM0 11.625C0 11.0497 0.46637 10.5833 1.04167 10.5833H22.9583C23.5336 10.5833 24 11.0497 24 11.625C24 12.2003 23.5336 12.6666 22.9583 12.6666H1.04167C0.466369 12.6666 0 12.2003 0 11.625ZM0 6.41663C0 5.84133 0.46637 5.37496 1.04167 5.37496H22.9583C23.5336 5.37496 24 5.84133 24 6.41663C24 6.99192 23.5336 7.45829 22.9583 7.45829H1.04167C0.466369 7.45829 0 6.99192 0 6.41663Z" fill="white"/>
</svg>
