<svg width="18" height="18" viewBox="0 0 18 18" fill="none" xmlns="http://www.w3.org/2000/svg">
<path d="M8.99984 7.33329C10.8408 7.33329 12.3332 5.84091 12.3332 3.99996C12.3332 2.15901 10.8408 0.666626 8.99984 0.666626C7.15889 0.666626 5.6665 2.15901 5.6665 3.99996C5.6665 5.84091 7.15889 7.33329 8.99984 7.33329ZM3.58317 9.83329C4.73376 9.83329 5.6665 8.90054 5.6665 7.74996C5.6665 6.59937 4.73376 5.66663 3.58317 5.66663C2.43258 5.66663 1.49984 6.59937 1.49984 7.74996C1.49984 8.90054 2.43258 9.83329 3.58317 9.83329ZM16.4998 7.74996C16.4998 8.90054 15.5671 9.83329 14.4165 9.83329C13.2659 9.83329 12.3332 8.90054 12.3332 7.74996C12.3332 6.59937 13.2659 5.66663 14.4165 5.66663C15.5671 5.66663 16.4998 6.59937 16.4998 7.74996ZM8.99984 8.16663C11.301 8.16663 13.1665 10.0321 13.1665 12.3333V17.3333H4.83317V12.3333C4.83317 10.0321 6.69865 8.16663 8.99984 8.16663ZM3.1665 12.3332C3.1665 11.7558 3.2504 11.198 3.40665 10.6713L3.26537 10.6836C1.80403 10.842 0.666504 12.0798 0.666504 13.5832V17.3332H3.1665V12.3332ZM17.3332 17.3332V13.5832C17.3332 12.0315 16.1214 10.7627 14.593 10.6713C14.7493 11.198 14.8332 11.7558 14.8332 12.3332V17.3332H17.3332Z" fill="white"/>
</svg>
