<svg width="70" height="70" viewBox="0 0 70 70" fill="none" xmlns="http://www.w3.org/2000/svg">
<g clip-path="url(#clip0_1503_235)">
<path d="M35 62.6514C34.9615 62.6068 34.9216 62.5606 34.8803 62.5128C34.3277 61.8713 33.5365 60.9361 32.5864 59.7653C30.6852 57.4228 28.1519 54.1429 25.6206 50.3912C23.0874 46.6367 20.5686 42.4277 18.6861 38.2256C16.7977 34.0104 15.5833 29.8758 15.5833 26.25C15.5833 15.5148 24.2648 6.83333 35 6.83333C45.7352 6.83333 54.4167 15.5148 54.4167 26.25C54.4167 29.8758 53.2024 34.0104 51.314 38.2256C49.4314 42.4277 46.9126 46.6367 44.3794 50.3912C41.8481 54.1429 39.3148 57.4228 37.4137 59.7653C36.4635 60.9361 35.6723 61.8713 35.1197 62.5128C35.0785 62.5606 35.0385 62.6068 35 62.6514ZM26.7083 26.25C26.7083 30.8273 30.4227 34.5417 35 34.5417C39.5773 34.5417 43.2917 30.8273 43.2917 26.25C43.2917 21.6727 39.5773 17.9583 35 17.9583C30.4227 17.9583 26.7083 21.6727 26.7083 26.25Z" fill="white" stroke="white" stroke-width="2"/>
</g>
<defs>
<clipPath id="clip0_1503_235">
<rect width="70" height="70" fill="white"/>
</clipPath>
</defs>
</svg>
