<svg aria-hidden="true" style="position: absolute; width: 0; height: 0; overflow: hidden;" version="1.1" xmlns="http://www.w3.org/2000/svg" xmlns:xlink="http://www.w3.org/1999/xlink">
<defs>
<symbol id="telegram" viewBox="0 0 32 32">
<path d="M5 0h22c2.761 0 5 2.239 5 5v22c0 2.761-2.239 5-5 5h-22c-2.761 0-5-2.239-5-5v-22c0-2.761 2.239-5 5-5zM16.692 12.007c-1.433 0.596-4.297 1.83-8.592 3.701-0.697 0.277-1.063 0.549-1.096 0.814-0.056 0.448 0.505 0.625 1.27 0.865 0.104 0.033 0.212 0.067 0.322 0.102 0.752 0.244 1.764 0.531 2.29 0.542 0.477 0.010 1.010-0.186 1.598-0.59 4.013-2.709 6.084-4.078 6.215-4.108 0.092-0.021 0.219-0.047 0.305 0.030s0.078 0.222 0.068 0.26c-0.056 0.237-2.26 2.286-3.4 3.347-0.356 0.331-0.608 0.565-0.659 0.619-0.116 0.12-0.233 0.233-0.346 0.343-0.699 0.674-1.223 1.179 0.029 2.004 0.602 0.396 1.083 0.724 1.563 1.051 0.525 0.357 1.048 0.713 1.725 1.157 0.172 0.113 0.337 0.23 0.498 0.345 0.61 0.435 1.159 0.826 1.836 0.764 0.394-0.036 0.8-0.406 1.007-1.511 0.488-2.609 1.447-8.263 1.669-10.592 0.019-0.204-0.005-0.465-0.025-0.58s-0.061-0.278-0.21-0.399c-0.177-0.143-0.449-0.173-0.571-0.171-0.554 0.010-1.404 0.305-5.496 2.007z"></path>
</symbol>
<symbol id="linkedin" viewBox="0 0 32 32">
<path d="M0 5c0-2.761 2.239-5 5-5h22c2.761 0 5 2.239 5 5v22c0 2.761-2.239 5-5 5h-22c-2.761 0-5-2.239-5-5v-22zM8.2 13.3v10.7h3.4v-10.7h-3.4zM8 9.9c0 1.1 0.8 1.9 1.9 1.9s1.9-0.8 1.9-1.9c0-1.1-0.8-1.9-1.9-1.9-1 0-1.9 0.8-1.9 1.9zM20.6 24h3.2v-6.6c0-3.3-2-4.4-3.9-4.4-1.7 0-2.9 1.1-3.2 1.8v-1.5h-3.2v10.7h3.4v-5.7c0-1.5 1-2.3 2-2.3s1.7 0.5 1.7 2.2v5.8z"></path>
</symbol>
<symbol id="instagram" viewBox="0 0 32 32">
<path d="M11 3.333c-4.222 0-7.667 3.444-7.667 7.667v10c0 4.222 3.444 7.667 7.667 7.667h10c4.222 0 7.667-3.445 7.667-7.667v-10c0-4.223-3.445-7.667-7.667-7.667h-10zM11 5.333h10c3.141 0 5.667 2.525 5.667 5.667v10c0 3.141-2.526 5.667-5.667 5.667h-10c-3.141 0-5.667-2.526-5.667-5.667v-10c0-3.142 2.525-5.667 5.667-5.667zM22.667 8c-0.737 0-1.333 0.597-1.333 1.333s0.597 1.333 1.333 1.333c0.737 0 1.333-0.597 1.333-1.333s-0.597-1.333-1.333-1.333zM16 9.333c-3.67 0-6.667 2.997-6.667 6.667s2.997 6.667 6.667 6.667c3.67 0 6.667-2.997 6.667-6.667s-2.997-6.667-6.667-6.667zM16 11.333c2.589 0 4.667 2.078 4.667 4.667s-2.078 4.667-4.667 4.667c-2.589 0-4.667-2.078-4.667-4.667s2.078-4.667 4.667-4.667z"></path>
</symbol>
</defs>
</svg>
