<svg width="511" height="267" viewBox="0 0 511 267" fill="none" xmlns="http://www.w3.org/2000/svg">
<path fill-rule="evenodd" clip-rule="evenodd" d="M299.057 146.429C299.057 150.7 298.218 154.47 296.558 157.74C294.88 161.019 292.639 163.714 289.809 165.827C286.462 168.377 282.866 170.171 279.057 171.246C275.24 172.303 270.298 172.831 264.249 172.831H238.764V86.8572H262.332C268.666 86.8572 273.405 87.0575 276.568 87.4583C279.731 87.859 282.773 88.8062 285.678 90.318C288.859 91.9664 291.192 94.134 292.648 96.8024C294.124 99.4709 294.861 102.622 294.861 106.219C294.861 110.272 293.755 113.888 291.542 117.066C289.338 120.263 286.277 122.768 282.377 124.562V125.026C287.669 126.42 291.773 128.951 294.677 132.631C297.609 136.319 299.057 140.9 299.057 146.429ZM282.561 107.859C282.561 105.764 282.202 103.979 281.473 102.44C280.772 100.937 279.611 99.7259 278.025 98.8425C276.107 97.8042 273.977 97.1667 271.626 96.9299C269.284 96.7114 266.038 96.593 261.898 96.593H250.548V121.766H263.991C267.689 121.766 270.427 121.584 272.17 121.21C273.922 120.837 275.729 120.09 277.601 118.933C279.399 117.831 280.671 116.356 281.427 114.553C282.192 112.731 282.561 110.491 282.561 107.859ZM286.766 146.893C286.766 143.651 286.277 140.982 285.318 138.869C284.359 136.775 282.432 134.99 279.537 133.532C277.656 132.558 275.618 131.948 273.415 131.675C271.202 131.41 268.067 131.274 264 131.274H250.548V163.104H260.183C265.356 163.104 269.44 162.867 272.428 162.403C275.415 161.938 278.052 160.964 280.311 159.452C282.543 157.949 284.166 156.237 285.208 154.334C286.249 152.421 286.766 149.935 286.766 146.893Z" fill="white"/>
<path fill-rule="evenodd" clip-rule="evenodd" d="M310.842 172.831V86.8572H366.515V97.021H322.635V120.582H363.528V130.764H322.635V162.658H366.515V172.831H310.842Z" fill="white"/>
<path fill-rule="evenodd" clip-rule="evenodd" d="M404.209 174.361C397.754 174.361 392.287 173.705 387.769 172.44C383.251 171.146 379.009 169.552 375.035 167.676V153.369H375.874C379.765 156.902 384.173 159.635 389.115 161.574C394.039 163.514 398.806 164.48 403.379 164.48C409.889 164.48 414.822 163.177 418.169 160.536C421.506 157.895 423.175 154.416 423.175 150.117C423.175 146.684 422.29 143.906 420.548 141.748C418.805 139.589 416.02 137.995 412.194 136.948C409.455 136.183 406.947 135.555 404.679 135.054C402.411 134.553 399.562 133.879 396.141 133.041C393.08 132.267 390.323 131.283 387.898 130.09C385.482 128.897 383.334 127.34 381.453 125.418C379.618 123.524 378.198 121.32 377.184 118.742C376.16 116.201 375.662 113.251 375.662 109.899C375.662 102.932 378.465 97.0942 384.09 92.3766C389.687 87.6772 396.851 85.3184 405.555 85.3184C410.534 85.3184 415.227 85.8011 419.672 86.7573C424.097 87.7227 428.21 89.0888 431.981 90.8556V104.562H431.087C428.274 102.049 424.651 99.8719 420.234 97.9958C415.817 96.1288 411.18 95.1999 406.339 95.1999C400.853 95.1999 396.427 96.4385 393.034 98.9066C389.65 101.393 387.972 104.653 387.972 108.688C387.972 112.331 388.967 115.236 390.95 117.395C392.941 119.553 395.827 121.138 399.599 122.13C402.116 122.777 405.168 123.524 408.791 124.353C412.415 125.172 415.412 125.946 417.809 126.639C423.931 128.451 428.413 131.183 431.225 134.835C434.056 138.496 435.466 142.995 435.466 148.341C435.466 151.675 434.756 154.999 433.355 158.259C431.935 161.538 429.952 164.316 427.408 166.583C424.549 169.079 421.313 171.01 417.717 172.358C414.112 173.696 409.603 174.361 404.209 174.361Z" fill="white"/>
<path fill-rule="evenodd" clip-rule="evenodd" d="M468.328 172.831V97.021H438.463V86.8572H509.995V97.021H480.13V172.831H468.328Z" fill="white"/>
<path d="M462.417 207.474H449.398V184.36H452.385V204.742H462.417V207.474ZM481.052 184.36L473.325 207.474H470.107L462.38 184.36H465.58L471.795 203.513L478 184.36H481.052ZM491.038 207.474H482.315V205.116H485.183V186.719H482.315V184.36H491.038V186.719H488.17V205.116H491.038V207.474ZM511 184.36L503.273 207.474H500.046L492.329 184.36H495.528L501.743 203.513L507.948 184.36H511Z" fill="white"/>
<path fill-rule="evenodd" clip-rule="evenodd" d="M194.405 172.939L174.83 161.327H123.702L104.108 172.939C122.844 206.436 178.868 261.272 239.548 266.016C218.397 253.831 184.742 210.033 194.405 172.939Z" fill="white"/>
<path fill-rule="evenodd" clip-rule="evenodd" d="M152.479 110.026L152.101 109.325L152.479 110.026ZM208.227 0C208.549 24.9451 188.522 76.8116 152.47 86.766L152.479 110.035L178.048 155.59L197.614 167.23C216.433 133.778 234.579 56.4475 208.227 0Z" fill="white"/>
<path fill-rule="evenodd" clip-rule="evenodd" d="M120.475 155.58L120.097 156.263L120.475 155.58ZM146.053 86.765C108.507 86.7194 34.3279 109.206 0 160.908C20.8383 148.167 74.5109 140.061 100.909 167.229L120.475 155.589L146.044 110.034L146.053 86.765Z" fill="white"/>
<path fill-rule="evenodd" clip-rule="evenodd" d="M137.265 142.294C137.265 135.5 142.632 129.99 149.252 129.99C155.872 129.99 161.239 135.5 161.239 142.294C161.239 149.125 155.872 154.635 149.252 154.635C142.632 154.635 137.265 149.125 137.265 142.294Z" fill="white"/>
</svg>
